M48
; DRILL file {KiCad 8.0.8} date 2025-03-31T12:38:23+0200
; FORMAT={-:-/ absolute / inch / decimal}
; #@! TF.CreationDate,2025-03-31T12:38:23+02:00
; #@! TF.GenerationSoftware,Kicad,Pcbnew,8.0.8
; #@! TF.FileFunction,Plated,1,2,PTH
FMAT,2
INCH
; #@! TA.AperFunction,Plated,PTH,ViaDrill
T1C0.0118
; #@! TA.AperFunction,Plated,PTH,ComponentDrill
T2C0.0236
; #@! TA.AperFunction,Plated,PTH,ComponentDrill
T3C0.1201
%
G90
G05
T1
X3.2969Y-5.7679
X3.3009Y-4.9943
X3.3019Y-6.5091
X3.3029Y-3.4963
X3.3058Y-4.2522
X4.0479Y-4.2423
X4.0509Y-4.9913
X4.0519Y-3.5041
X4.0548Y-5.761
X4.0578Y-6.5022
X4.0999Y-3.3774
X4.131Y-6.4085
X4.1746Y-6.3415
X4.1781Y-3.664
X4.1793Y-3.5087
X4.1959Y-6.2872
X4.2296Y-6.8577
X4.2514Y-4.3683
X4.2671Y-4.4053
X4.2699Y-6.2309
X4.2744Y-3.8933
X4.2774Y-4.0754
X4.3244Y-4.0882
X4.3317Y-4.2896
X4.3329Y-4.3297
X4.3329Y-4.3691
X4.3329Y-4.4085
X4.375Y-4.088
X4.4244Y-3.8933
X4.4244Y-4.0882
X4.4352Y-3.5087
X4.4565Y-3.6671
X5.1819Y-3.51
X5.341Y-4.2049
X5.435Y-5.0138
X5.6074Y-5.7602
X5.9417Y-3.5051
X6.091Y-5.762
X6.2785Y-4.201
X6.4673Y-5.0134
X6.6888Y-3.5022
X6.7407Y-6.512
X6.864Y-5.76
X6.9317Y-5.477
X7.0213Y-4.1976
X7.2091Y-5.0177
X7.2236Y-6.3201
X7.3071Y-6.1354
X7.3402Y-6.3457
X7.372Y-6.3244
X7.4339Y-3.4923
X7.4484Y-6.4451
X7.5292Y-6.2294
X7.5844Y-6.512
X7.591Y-5.7659
X7.7012Y-6.7941
X7.7012Y-6.8256
X7.7199Y-6.4884
X7.7602Y-6.8391
X7.7666Y-6.8064
X7.7748Y-4.2043
X7.9795Y-5.0118
X7.9898Y-6.4057
X8.1591Y-6.113
X8.1829Y-3.4943
X8.1861Y-6.5318
X8.2258Y-6.5144
X8.4744Y-6.2764
X8.5016Y-6.3218
X8.5252Y-6.5287
X8.5287Y-4.2055
X8.5854Y-6.4441
X8.6693Y-6.5142
X8.6766Y-6.65
X8.6882Y-6.2331
X8.7118Y-5.0205
X8.7337Y-6.5071
X8.8563Y-6.8864
X8.9091Y-6.4291
X8.9126Y-6.772
X8.9388Y-3.4972
X8.9657Y-6.2488
X9.0925Y-5.7567
X9.1035Y-6.4291
X9.1106Y-6.2982
X9.272Y-4.2067
X9.4083Y-6.7217
X9.4185Y-6.5079
X9.4205Y-6.6028
X9.4764Y-5.0091
X9.4839Y-6.5965
X9.4894Y-6.5232
X9.4921Y-6.7594
X9.5858Y-6.2488
X9.6134Y-6.3218
X9.698Y-6.2976
X9.7075Y-3.5002
X9.7157Y-6.1189
X9.7559Y-6.2665
X9.7931Y-6.8778
X9.8402Y-5.7618
X9.9675Y-6.8398
X10.0327Y-4.2043
X10.2118Y-5.0118
X10.2154Y-6.4961
X10.2862Y-6.1209
X10.4012Y-6.5102
X10.4526Y-3.5002
X10.4656Y-6.264
X10.5039Y-6.2591
X10.5287Y-6.622
X10.5344Y-6.7612
X10.5465Y-6.222
X10.587Y-5.7591
X10.591Y-5.6321
X10.5933Y-6.176
X10.5992Y-6.4451
X10.6485Y-6.514
X10.6536Y-6.63
X10.6587Y-4.7441
X10.7354Y-6.185
X10.7429Y-6.6537
X10.7441Y-6.7177
X10.7461Y-6.5907
X10.7466Y-6.4338
X10.748Y-6.5593
X10.7496Y-6.4963
X10.7506Y-6.5279
X10.7517Y-6.4648
X10.7543Y-6.6232
X10.7798Y-4.2029
X10.8201Y-6.7906
X10.8222Y-6.3585
X10.826Y-6.4106
X10.8518Y-6.8015
X10.8537Y-6.3585
X10.8574Y-6.4124
X10.8829Y-6.8181
X10.9154Y-6.8051
X10.9331Y-6.1567
X10.9477Y-6.3306
X10.9705Y-5.0118
X10.976Y-6.1283
X10.9787Y-6.3358
X10.9791Y-6.8024
X10.9791Y-6.8654
X11.002Y-6.7311
X11.0112Y-6.3232
X11.0394Y-6.8819
X11.0421Y-6.7882
X11.0427Y-6.3189
X11.0736Y-6.7882
X11.1508Y-6.4551
X11.1508Y-6.7177
X11.2031Y-6.6862
X11.2031Y-6.7177
X11.2041Y-6.4352
X11.2144Y-3.3732
X11.2144Y-3.5031
X11.2657Y-6.335
X11.2894Y-6.5287
X11.313Y-6.5535
X11.324Y-6.5858
X11.341Y-5.762
X11.3524Y-6.6138
X11.3592Y-6.3143
X11.3634Y-6.2831
X11.3731Y-6.2531
X11.3732Y-6.2216
X11.376Y-6.7827
X11.3815Y-6.3366
X11.4024Y-6.8244
X11.4142Y-6.3585
X11.4204Y-6.1733
X11.424Y-6.4358
X11.4696Y-6.4114
X11.4756Y-6.4945
X11.5311Y-4.2055
X11.6394Y-5.147
X11.6717Y-6.2122
X11.6791Y-6.7146
X11.6831Y-6.4748
X11.716Y-4.8821
X11.7232Y-5.0118
X11.9035Y-3.512
X12.091Y-5.762
X12.2783Y-4.2016
X12.4331Y-6.2441
X12.4677Y-5.0177
X12.6535Y-3.512
X12.841Y-5.762
X13.026Y-4.2004
X13.1913Y-5.015
X13.2094Y-6.512
X13.2291Y-6.2598
X13.4035Y-3.512
X13.591Y-5.7659
X13.7874Y-4.2043
X13.9795Y-5.0031
X14.0532Y-6.512
X14.1535Y-3.512
X14.5335Y-4.1898
X14.5898Y-6.1175
X14.5965Y-6.3585
X14.9495Y-5.9112
X15.1848Y-5.012
X15.261Y-6.1201
X15.3898Y-6.3492
X15.466Y-4.201
X15.6524Y-5.7646
X16.0564Y-6.3236
X16.7685Y-5.0205
X16.7744Y-5.7591
X16.778Y-3.451
X16.7862Y-4.1917
X17.0299Y-6.4898
X17.0323Y-6.339
X17.5244Y-4.2063
X17.5272Y-3.4535
X17.5362Y-5.0177
X17.5417Y-5.7618
X17.5567Y-6.5146
X18.2744Y-5.015
X18.2744Y-5.7472
X18.2744Y-6.5146
X18.2772Y-3.4535
X18.2772Y-4.2063
T3
X2.8709Y-3.7612
X2.8709Y-4.5112
X2.8709Y-5.2612
X2.8709Y-6.0112
X2.8709Y-6.7612
X3.1209Y-3.6612
X3.1209Y-4.4112
X3.1209Y-5.1612
X3.1209Y-5.9112
X3.1209Y-6.6612
X3.6209Y-3.7612
X3.6209Y-4.5112
X3.6209Y-5.2612
X3.6209Y-6.0112
X3.6209Y-6.7612
X3.8709Y-3.6612
X3.8709Y-4.4112
X3.8709Y-5.1612
X3.8709Y-5.9112
X3.8709Y-6.6612
X4.7465Y-3.7612
X4.7921Y-4.9618
X4.8402Y-6.0112
X4.934Y-4.5112
X4.9965Y-3.6612
X5.0277Y-5.2612
X5.0421Y-4.8618
X5.0902Y-5.9112
X5.1652Y-5.7112
X5.184Y-4.4112
X5.2777Y-5.1612
X5.4152Y-5.6112
X5.4965Y-3.7612
X5.684Y-6.0112
X5.7465Y-3.6612
X5.8715Y-4.5112
X5.934Y-5.9112
X6.059Y-5.2612
X6.1215Y-4.4112
X6.2465Y-3.7612
X6.309Y-5.1612
X6.3336Y-6.7612
X6.434Y-6.0112
X6.4965Y-3.6612
X6.5836Y-6.6612
X6.6215Y-4.5112
X6.684Y-5.9112
X6.809Y-5.2612
X6.8715Y-4.4112
X6.9965Y-3.7612
X7.059Y-5.1612
X7.1774Y-6.7612
X7.184Y-6.0112
X7.2465Y-3.6612
X7.3715Y-4.5112
X7.4274Y-6.6612
X7.434Y-5.9112
X7.559Y-5.2612
X7.6215Y-4.4112
X7.7465Y-3.7612
X7.809Y-5.1612
X7.934Y-6.0112
X7.9965Y-3.6612
X8.1215Y-4.5112
X8.184Y-5.9112
X8.309Y-5.2612
X8.3715Y-4.4112
X8.4965Y-3.7612
X8.559Y-5.1612
X8.684Y-6.0112
X8.7465Y-3.6612
X8.8715Y-4.5112
X8.934Y-5.9112
X9.059Y-5.2612
X9.1215Y-4.4112
X9.2465Y-3.7612
X9.309Y-5.1612
X9.434Y-6.0112
X9.4965Y-3.6612
X9.6215Y-4.5112
X9.684Y-5.9112
X9.809Y-5.2612
X9.8715Y-4.4112
X9.9899Y-6.7612
X9.9965Y-3.7612
X10.059Y-5.1612
X10.184Y-6.0112
X10.2399Y-6.6612
X10.2465Y-3.6612
X10.3715Y-4.5112
X10.434Y-5.9112
X10.559Y-5.2612
X10.6215Y-4.4112
X10.7465Y-3.7612
X10.809Y-5.1612
X10.934Y-6.0112
X10.9965Y-3.6612
X11.1215Y-4.5112
X11.184Y-5.9112
X11.309Y-5.2612
X11.3715Y-4.4112
X11.4965Y-3.7612
X11.559Y-5.1612
X11.684Y-6.0112
X11.7465Y-3.6612
X11.8715Y-4.5112
X11.934Y-5.9112
X12.059Y-5.2612
X12.1215Y-4.4112
X12.2465Y-3.7612
X12.309Y-5.1612
X12.434Y-6.0112
X12.4965Y-3.6612
X12.6215Y-4.5112
X12.684Y-5.9112
X12.8024Y-6.7612
X12.809Y-5.2612
X12.8715Y-4.4112
X12.9965Y-3.7612
X13.0524Y-6.6612
X13.059Y-5.1612
X13.184Y-6.0112
X13.2465Y-3.6612
X13.3715Y-4.5112
X13.434Y-5.9112
X13.559Y-5.2612
X13.6215Y-4.4112
X13.6461Y-6.7612
X13.7465Y-3.7612
X13.809Y-5.1612
X13.8961Y-6.6612
X13.9965Y-3.6612
X14.1215Y-4.5112
X14.1652Y-5.7112
X14.3715Y-4.4112
X14.4152Y-5.6112
X14.4965Y-3.7612
X14.5902Y-6.0112
X14.7465Y-3.6612
X14.7777Y-5.2612
X14.8215Y-3.4612
X14.8402Y-5.9112
X15.0277Y-5.1612
X15.059Y-4.5112
X15.0715Y-3.3612
X15.2465Y-3.7612
X15.2465Y-6.0112
X15.309Y-4.4112
X15.4965Y-3.6612
X15.4965Y-5.9112
X16.3709Y-3.7612
X16.3709Y-4.5112
X16.3709Y-5.2612
X16.3709Y-6.0112
X16.3709Y-6.7612
X16.6209Y-3.6612
X16.6209Y-4.4112
X16.6209Y-5.1612
X16.6209Y-5.9112
X16.6209Y-6.6612
X17.1209Y-3.7612
X17.1209Y-4.5112
X17.1209Y-5.2612
X17.1209Y-6.0112
X17.1209Y-6.7612
X17.3709Y-3.6612
X17.3709Y-4.4112
X17.3709Y-5.1612
X17.3709Y-5.9112
X17.3709Y-6.6612
X17.8709Y-3.7612
X17.8709Y-4.5112
X17.8709Y-5.2612
X17.8709Y-6.0112
X17.8709Y-6.7612
X18.1209Y-3.6612
X18.1209Y-4.4112
X18.1209Y-5.1612
X18.1209Y-5.9112
X18.1209Y-6.6612
T2
G00X4.1372Y-3.2963
M15
G01X4.1372Y-3.3199
M16
G05
G00X4.1372Y-3.451
M15
G01X4.1372Y-3.4943
M16
G05
G00X4.4774Y-3.2963
M15
G01X4.4774Y-3.3199
M16
G05
G00X4.4774Y-3.451
M15
G01X4.4774Y-3.4943
M16
G05
M30
