%TF.GenerationSoftware,KiCad,Pcbnew,8.0.8*%
%TF.CreationDate,2025-04-01T14:15:57+02:00*%
%TF.ProjectId,xt_pcb,78745f70-6362-42e6-9b69-6361645f7063,rev?*%
%TF.SameCoordinates,Original*%
%TF.FileFunction,Paste,Bot*%
%TF.FilePolarity,Positive*%
%FSLAX46Y46*%
G04 Gerber Fmt 4.6, Leading zero omitted, Abs format (unit mm)*
G04 Created by KiCad (PCBNEW 8.0.8) date 2025-04-01 14:15:57*
%MOMM*%
%LPD*%
G01*
G04 APERTURE LIST*
G04 Aperture macros list*
%AMRoundRect*
0 Rectangle with rounded corners*
0 $1 Rounding radius*
0 $2 $3 $4 $5 $6 $7 $8 $9 X,Y pos of 4 corners*
0 Add a 4 corners polygon primitive as box body*
4,1,4,$2,$3,$4,$5,$6,$7,$8,$9,$2,$3,0*
0 Add four circle primitives for the rounded corners*
1,1,$1+$1,$2,$3*
1,1,$1+$1,$4,$5*
1,1,$1+$1,$6,$7*
1,1,$1+$1,$8,$9*
0 Add four rect primitives between the rounded corners*
20,1,$1+$1,$2,$3,$4,$5,0*
20,1,$1+$1,$4,$5,$6,$7,0*
20,1,$1+$1,$6,$7,$8,$9,0*
20,1,$1+$1,$8,$9,$2,$3,0*%
G04 Aperture macros list end*
%ADD10RoundRect,0.250000X1.025000X1.000000X-1.025000X1.000000X-1.025000X-1.000000X1.025000X-1.000000X0*%
%ADD11RoundRect,0.250000X-1.025000X-1.000000X1.025000X-1.000000X1.025000X1.000000X-1.025000X1.000000X0*%
%ADD12RoundRect,0.225000X-0.375000X0.225000X-0.375000X-0.225000X0.375000X-0.225000X0.375000X0.225000X0*%
%ADD13R,0.600000X1.450000*%
%ADD14R,0.300000X1.450000*%
%ADD15RoundRect,0.135000X-0.135000X-0.185000X0.135000X-0.185000X0.135000X0.185000X-0.135000X0.185000X0*%
%ADD16RoundRect,0.375000X-0.625000X-0.375000X0.625000X-0.375000X0.625000X0.375000X-0.625000X0.375000X0*%
%ADD17RoundRect,0.500000X-0.500000X-1.400000X0.500000X-1.400000X0.500000X1.400000X-0.500000X1.400000X0*%
%ADD18RoundRect,0.140000X-0.140000X-0.170000X0.140000X-0.170000X0.140000X0.170000X-0.140000X0.170000X0*%
%ADD19RoundRect,0.140000X0.170000X-0.140000X0.170000X0.140000X-0.170000X0.140000X-0.170000X-0.140000X0*%
%ADD20R,0.550000X1.500000*%
%ADD21R,1.500000X0.550000*%
%ADD22RoundRect,0.150000X-0.625000X0.150000X-0.625000X-0.150000X0.625000X-0.150000X0.625000X0.150000X0*%
%ADD23RoundRect,0.250000X-0.650000X0.350000X-0.650000X-0.350000X0.650000X-0.350000X0.650000X0.350000X0*%
%ADD24RoundRect,0.150000X-0.150000X0.825000X-0.150000X-0.825000X0.150000X-0.825000X0.150000X0.825000X0*%
%ADD25R,1.200000X1.400000*%
%ADD26RoundRect,0.135000X-0.185000X0.135000X-0.185000X-0.135000X0.185000X-0.135000X0.185000X0.135000X0*%
%ADD27RoundRect,0.225000X0.225000X0.250000X-0.225000X0.250000X-0.225000X-0.250000X0.225000X-0.250000X0*%
%ADD28R,1.000000X1.700000*%
%ADD29RoundRect,0.140000X-0.170000X0.140000X-0.170000X-0.140000X0.170000X-0.140000X0.170000X0.140000X0*%
%ADD30RoundRect,0.135000X0.135000X0.185000X-0.135000X0.185000X-0.135000X-0.185000X0.135000X-0.185000X0*%
%ADD31RoundRect,0.225000X0.375000X-0.225000X0.375000X0.225000X-0.375000X0.225000X-0.375000X-0.225000X0*%
G04 APERTURE END LIST*
D10*
%TO.C,SW79*%
X444495000Y-150145000D03*
X431568000Y-152685000D03*
%TD*%
%TO.C,SW43*%
X101595000Y-131095000D03*
X88668000Y-133635000D03*
%TD*%
%TO.C,SW46*%
X182572500Y-131095000D03*
X169645500Y-133635000D03*
%TD*%
%TO.C,SW36*%
X377835000Y-92995000D03*
X364908000Y-95535000D03*
%TD*%
%TO.C,SW72*%
X230197500Y-150145000D03*
X217270500Y-152685000D03*
%TD*%
%TO.C,SW25*%
X158760000Y-112045000D03*
X145833000Y-114585000D03*
%TD*%
%TO.C,SW38*%
X425445000Y-112045000D03*
X412518000Y-114585000D03*
%TD*%
%TO.C,SW62*%
X368310000Y-112045000D03*
X355383000Y-114585000D03*
%TD*%
%TO.C,SW28*%
X215910000Y-112045000D03*
X202983000Y-114585000D03*
%TD*%
%TO.C,SW9*%
X206385000Y-92995000D03*
X193458000Y-95535000D03*
%TD*%
%TO.C,SW23*%
X101595000Y-112045000D03*
X88668000Y-114585000D03*
%TD*%
%TO.C,SW60*%
X344497500Y-150145000D03*
X331570500Y-152685000D03*
%TD*%
%TO.C,SW5*%
X130185000Y-92995000D03*
X117258000Y-95535000D03*
%TD*%
%TO.C,SW3*%
X82545000Y-92995000D03*
X69618000Y-95535000D03*
%TD*%
%TO.C,SW56*%
X384978750Y-131095000D03*
X372051750Y-133635000D03*
%TD*%
%TO.C,SW20*%
X444495000Y-92995000D03*
X431568000Y-95535000D03*
%TD*%
D11*
%TO.C,SW97*%
X356521250Y-145065000D03*
X369448250Y-142525000D03*
%TD*%
D10*
%TO.C,SW63*%
X132566250Y-150145000D03*
X119639250Y-152685000D03*
%TD*%
%TO.C,SW42*%
X82545000Y-131095000D03*
X69618000Y-133635000D03*
%TD*%
%TO.C,SW83*%
X170498750Y-169195000D03*
X157571750Y-171735000D03*
%TD*%
%TO.C,SW47*%
X201622500Y-131095000D03*
X188695500Y-133635000D03*
%TD*%
%TO.C,SW85*%
X263367500Y-169195000D03*
X250440500Y-171735000D03*
%TD*%
%TO.C,SW90*%
X463545000Y-169195000D03*
X450618000Y-171735000D03*
%TD*%
%TO.C,SW82*%
X101595000Y-169195000D03*
X88668000Y-171735000D03*
%TD*%
%TO.C,SW13*%
X282585000Y-92995000D03*
X269658000Y-95535000D03*
%TD*%
%TO.C,SW24*%
X134947500Y-112045000D03*
X122020500Y-114585000D03*
%TD*%
%TO.C,SW81*%
X82545000Y-169195000D03*
X69618000Y-171735000D03*
%TD*%
%TO.C,SW22*%
X82545000Y-112045000D03*
X69618000Y-114585000D03*
%TD*%
%TO.C,SW14*%
X301635000Y-92995000D03*
X288708000Y-95535000D03*
%TD*%
%TO.C,SW49*%
X239722500Y-131095000D03*
X226795500Y-133635000D03*
%TD*%
%TO.C,SW54*%
X334972500Y-131095000D03*
X322045500Y-133635000D03*
%TD*%
%TO.C,SW10*%
X225435000Y-92995000D03*
X212508000Y-95535000D03*
%TD*%
%TO.C,SW15*%
X320685000Y-92995000D03*
X307758000Y-95535000D03*
%TD*%
%TO.C,SW29*%
X234960000Y-112045000D03*
X222033000Y-114585000D03*
%TD*%
%TO.C,SW67*%
X101595000Y-150145000D03*
X88668000Y-152685000D03*
%TD*%
%TO.C,SW50*%
X258772500Y-131095000D03*
X245845500Y-133635000D03*
%TD*%
%TO.C,SW58*%
X444495000Y-131095000D03*
X431568000Y-133635000D03*
%TD*%
%TO.C,SW55*%
X354022500Y-131095000D03*
X341095500Y-133635000D03*
%TD*%
%TO.C,SW16*%
X339735000Y-92995000D03*
X326808000Y-95535000D03*
%TD*%
%TO.C,SW96*%
X380216250Y-150145000D03*
X367289250Y-152685000D03*
%TD*%
%TO.C,SW73*%
X249247500Y-150145000D03*
X236320500Y-152685000D03*
%TD*%
%TO.C,SW37*%
X392122500Y-112045000D03*
X379195500Y-114585000D03*
%TD*%
%TO.C,SW71*%
X211147500Y-150145000D03*
X198220500Y-152685000D03*
%TD*%
%TO.C,SW52*%
X296872500Y-131095000D03*
X283945500Y-133635000D03*
%TD*%
%TO.C,SW34*%
X330210000Y-112045000D03*
X317283000Y-114585000D03*
%TD*%
%TO.C,SW59*%
X463545000Y-131095000D03*
X450618000Y-133635000D03*
%TD*%
%TO.C,SW75*%
X287347500Y-150145000D03*
X274420500Y-152685000D03*
%TD*%
D11*
%TO.C,SW44*%
X118445000Y-126030000D03*
X131372000Y-123490000D03*
%TD*%
D10*
%TO.C,SW41*%
X137328750Y-131095000D03*
X124401750Y-133635000D03*
%TD*%
%TO.C,SW6*%
X149235000Y-92995000D03*
X136308000Y-95535000D03*
%TD*%
%TO.C,SW21*%
X463545000Y-92995000D03*
X450618000Y-95535000D03*
%TD*%
%TO.C,SW77*%
X325447500Y-150145000D03*
X312520500Y-152685000D03*
%TD*%
%TO.C,SW4*%
X101595000Y-92995000D03*
X88668000Y-95535000D03*
%TD*%
%TO.C,SW2*%
X396885000Y-92995000D03*
X383958000Y-95535000D03*
%TD*%
D11*
%TO.C,SW1*%
X373190000Y-87915000D03*
X386117000Y-85375000D03*
%TD*%
D10*
%TO.C,SW12*%
X263535000Y-92995000D03*
X250608000Y-95535000D03*
%TD*%
%TO.C,SW66*%
X82545000Y-150145000D03*
X69618000Y-152685000D03*
%TD*%
%TO.C,SW68*%
X153997500Y-150145000D03*
X141070500Y-152685000D03*
%TD*%
%TO.C,SW40*%
X463545000Y-112045000D03*
X450618000Y-114585000D03*
%TD*%
%TO.C,SW45*%
X163522500Y-131095000D03*
X150595500Y-133635000D03*
%TD*%
%TO.C,SW7*%
X168285000Y-92995000D03*
X155358000Y-95535000D03*
%TD*%
%TO.C,SW48*%
X220672500Y-131095000D03*
X207745500Y-133635000D03*
%TD*%
%TO.C,SW31*%
X273060000Y-112045000D03*
X260133000Y-114585000D03*
%TD*%
%TO.C,SW26*%
X177810000Y-112045000D03*
X164883000Y-114585000D03*
%TD*%
%TO.C,SW35*%
X349260000Y-112045000D03*
X336333000Y-114585000D03*
%TD*%
%TO.C,SW84*%
X191930000Y-169195000D03*
X179003000Y-171735000D03*
%TD*%
%TO.C,SW78*%
X425445000Y-150145000D03*
X412518000Y-152685000D03*
%TD*%
%TO.C,SW32*%
X292110000Y-112045000D03*
X279183000Y-114585000D03*
%TD*%
%TO.C,SW89*%
X444495000Y-169195000D03*
X431568000Y-171735000D03*
%TD*%
%TO.C,SW69*%
X173047500Y-150145000D03*
X160120500Y-152685000D03*
%TD*%
%TO.C,SW17*%
X358785000Y-92995000D03*
X345858000Y-95535000D03*
%TD*%
%TO.C,SW39*%
X444495000Y-112045000D03*
X431568000Y-114585000D03*
%TD*%
%TO.C,SW74*%
X268297500Y-150145000D03*
X255370500Y-152685000D03*
%TD*%
%TO.C,SW30*%
X254010000Y-112045000D03*
X241083000Y-114585000D03*
%TD*%
%TO.C,SW64*%
X396885000Y-150145000D03*
X383958000Y-152685000D03*
%TD*%
%TO.C,SW19*%
X425445000Y-92995000D03*
X412518000Y-95535000D03*
%TD*%
%TO.C,SW57*%
X425445000Y-131095000D03*
X412518000Y-133635000D03*
%TD*%
%TO.C,SW8*%
X187335000Y-92995000D03*
X174408000Y-95535000D03*
%TD*%
%TO.C,SW51*%
X277822500Y-131095000D03*
X264895500Y-133635000D03*
%TD*%
%TO.C,SW33*%
X311160000Y-112045000D03*
X298233000Y-114585000D03*
%TD*%
%TO.C,SW76*%
X306397500Y-150145000D03*
X293470500Y-152685000D03*
%TD*%
%TO.C,SW11*%
X244485000Y-92995000D03*
X231558000Y-95535000D03*
%TD*%
%TO.C,SW80*%
X463545000Y-150145000D03*
X450618000Y-152685000D03*
%TD*%
%TO.C,SW27*%
X196860000Y-112045000D03*
X183933000Y-114585000D03*
%TD*%
%TO.C,SW88*%
X425445000Y-169195000D03*
X412518000Y-171735000D03*
%TD*%
%TO.C,SW87*%
X356236250Y-169195000D03*
X343309250Y-171735000D03*
%TD*%
D11*
%TO.C,SW61*%
X127921250Y-145065000D03*
X140848250Y-142525000D03*
%TD*%
D10*
%TO.C,SW86*%
X334805000Y-169195000D03*
X321878000Y-171735000D03*
%TD*%
%TO.C,SW53*%
X315922500Y-131095000D03*
X302995500Y-133635000D03*
%TD*%
%TO.C,SW70*%
X192097500Y-150145000D03*
X179170500Y-152685000D03*
%TD*%
D12*
%TO.C,D66*%
X230912500Y-143055000D03*
X230912500Y-146355000D03*
%TD*%
%TO.C,D49*%
X278537500Y-124005000D03*
X278537500Y-127305000D03*
%TD*%
%TO.C,D82*%
X356951250Y-162105000D03*
X356951250Y-165405000D03*
%TD*%
%TO.C,D79*%
X192645000Y-162105000D03*
X192645000Y-165405000D03*
%TD*%
%TO.C,D32*%
X311875000Y-103405000D03*
X311875000Y-106705000D03*
%TD*%
%TO.C,D58*%
X83742500Y-143205000D03*
X83742500Y-146505000D03*
%TD*%
%TO.C,D64*%
X192812500Y-143155000D03*
X192812500Y-146455000D03*
%TD*%
%TO.C,D13*%
X321400000Y-85905000D03*
X321400000Y-89205000D03*
%TD*%
D13*
%TO.C,J2*%
X106155000Y-89120000D03*
X106955000Y-89120000D03*
D14*
X108155000Y-89120000D03*
X109155000Y-89120000D03*
X109655000Y-89120000D03*
X110655000Y-89120000D03*
D13*
X111855000Y-89120000D03*
X112655000Y-89120000D03*
X112655000Y-89120000D03*
X111855000Y-89120000D03*
D14*
X111155000Y-89120000D03*
X110155000Y-89120000D03*
X108655000Y-89120000D03*
X107655000Y-89120000D03*
D13*
X106955000Y-89120000D03*
X106155000Y-89120000D03*
%TD*%
D15*
%TO.C,R2*%
X245400000Y-173390000D03*
X246420000Y-173390000D03*
%TD*%
D12*
%TO.C,D7*%
X207845000Y-85455000D03*
X207845000Y-88755000D03*
%TD*%
D16*
%TO.C,U1*%
X228550000Y-170000000D03*
X228550000Y-167700000D03*
D17*
X234850000Y-167700000D03*
D16*
X228550000Y-165400000D03*
%TD*%
D12*
%TO.C,D36*%
X392837500Y-103405000D03*
X392837500Y-106705000D03*
%TD*%
%TO.C,D19*%
X445210000Y-84355000D03*
X445210000Y-87655000D03*
%TD*%
%TO.C,D43*%
X164237500Y-124005000D03*
X164237500Y-127305000D03*
%TD*%
%TO.C,D59*%
X102997500Y-143340000D03*
X102997500Y-146640000D03*
%TD*%
D18*
%TO.C,C3*%
X290810000Y-170640000D03*
X291770000Y-170640000D03*
%TD*%
D12*
%TO.C,D83*%
X426160000Y-162105000D03*
X426160000Y-165405000D03*
%TD*%
%TO.C,D6*%
X188820000Y-85405000D03*
X188820000Y-88705000D03*
%TD*%
%TO.C,D41*%
X102897500Y-123790000D03*
X102897500Y-127090000D03*
%TD*%
%TO.C,D15*%
X359500000Y-85905000D03*
X359500000Y-89205000D03*
%TD*%
%TO.C,D84*%
X445835000Y-162005000D03*
X445835000Y-165305000D03*
%TD*%
D19*
%TO.C,C6*%
X241100000Y-171690000D03*
X241100000Y-170730000D03*
%TD*%
D12*
%TO.C,D12*%
X302350000Y-85905000D03*
X302350000Y-89205000D03*
%TD*%
%TO.C,D37*%
X426160000Y-103305000D03*
X426160000Y-106605000D03*
%TD*%
%TO.C,D44*%
X183287500Y-124005000D03*
X183287500Y-127305000D03*
%TD*%
%TO.C,D39*%
X464260000Y-103305000D03*
X464260000Y-106605000D03*
%TD*%
%TO.C,D22*%
X102822500Y-104765000D03*
X102822500Y-108065000D03*
%TD*%
%TO.C,D86*%
X397600000Y-143055000D03*
X397600000Y-146355000D03*
%TD*%
%TO.C,D65*%
X211862500Y-143055000D03*
X211862500Y-146355000D03*
%TD*%
%TO.C,D2*%
X102922500Y-86015000D03*
X102922500Y-89315000D03*
%TD*%
%TO.C,D25*%
X178525000Y-103405000D03*
X178525000Y-106705000D03*
%TD*%
%TO.C,D4*%
X150920000Y-85730000D03*
X150920000Y-89030000D03*
%TD*%
%TO.C,D28*%
X235675000Y-103405000D03*
X235675000Y-106705000D03*
%TD*%
%TO.C,D74*%
X445560000Y-142880000D03*
X445560000Y-146180000D03*
%TD*%
D20*
%TO.C,U2*%
X282860000Y-172330000D03*
X282060000Y-172330000D03*
X281260000Y-172330000D03*
X280460000Y-172330000D03*
X279660000Y-172330000D03*
X278860000Y-172330000D03*
X278060000Y-172330000D03*
X277260000Y-172330000D03*
X276460000Y-172330000D03*
X275660000Y-172330000D03*
X274860000Y-172330000D03*
D21*
X273160000Y-170630000D03*
X273160000Y-169830000D03*
X273160000Y-169030000D03*
X273160000Y-168230000D03*
X273160000Y-167430000D03*
X273160000Y-166630000D03*
X273160000Y-165830000D03*
X273160000Y-165030000D03*
X273160000Y-164230000D03*
X273160000Y-163430000D03*
X273160000Y-162630000D03*
D20*
X274860000Y-160930000D03*
X275660000Y-160930000D03*
X276460000Y-160930000D03*
X277260000Y-160930000D03*
X278060000Y-160930000D03*
X278860000Y-160930000D03*
X279660000Y-160930000D03*
X280460000Y-160930000D03*
X281260000Y-160930000D03*
X282060000Y-160930000D03*
X282860000Y-160930000D03*
D21*
X284560000Y-162630000D03*
X284560000Y-163430000D03*
X284560000Y-164230000D03*
X284560000Y-165030000D03*
X284560000Y-165830000D03*
X284560000Y-166630000D03*
X284560000Y-167430000D03*
X284560000Y-168230000D03*
X284560000Y-169030000D03*
X284560000Y-169830000D03*
X284560000Y-170630000D03*
%TD*%
D19*
%TO.C,C8*%
X267300000Y-174210000D03*
X267300000Y-173250000D03*
%TD*%
D22*
%TO.C,J1*%
X110055000Y-108975000D03*
X110055000Y-109975000D03*
X110055000Y-110975000D03*
X110055000Y-111975000D03*
D23*
X113930000Y-107675000D03*
X113930000Y-113275000D03*
%TD*%
D12*
%TO.C,D40*%
X83842500Y-123555000D03*
X83842500Y-126855000D03*
%TD*%
%TO.C,D53*%
X354737500Y-124005000D03*
X354737500Y-127305000D03*
%TD*%
D24*
%TO.C,U3*%
X108570000Y-98890000D03*
X109840000Y-98890000D03*
X111110000Y-98890000D03*
X112380000Y-98890000D03*
X112380000Y-103840000D03*
X111110000Y-103840000D03*
X109840000Y-103840000D03*
X108570000Y-103840000D03*
%TD*%
D12*
%TO.C,D45*%
X202337500Y-124005000D03*
X202337500Y-127305000D03*
%TD*%
D15*
%TO.C,R5*%
X112175000Y-93145000D03*
X113195000Y-93145000D03*
%TD*%
D12*
%TO.C,D70*%
X307112500Y-143055000D03*
X307112500Y-146355000D03*
%TD*%
%TO.C,D1*%
X83892500Y-85505000D03*
X83892500Y-88805000D03*
%TD*%
D25*
%TO.C,Y1*%
X239190000Y-167550000D03*
X239190000Y-165350000D03*
X240890000Y-165350000D03*
X240890000Y-167550000D03*
%TD*%
D26*
%TO.C,R1*%
X291480000Y-163850000D03*
X291480000Y-164870000D03*
%TD*%
D12*
%TO.C,D20*%
X464260000Y-84355000D03*
X464260000Y-87655000D03*
%TD*%
%TO.C,D23*%
X135662500Y-103505000D03*
X135662500Y-106805000D03*
%TD*%
%TO.C,D80*%
X264082500Y-162105000D03*
X264082500Y-165405000D03*
%TD*%
%TO.C,D71*%
X326162500Y-143055000D03*
X326162500Y-146355000D03*
%TD*%
D27*
%TO.C,C5*%
X221935000Y-168910000D03*
X220385000Y-168910000D03*
%TD*%
D12*
%TO.C,D81*%
X335520000Y-162105000D03*
X335520000Y-165405000D03*
%TD*%
%TO.C,D31*%
X292825000Y-103405000D03*
X292825000Y-106705000D03*
%TD*%
%TO.C,D27*%
X216625000Y-103405000D03*
X216625000Y-106705000D03*
%TD*%
%TO.C,D34*%
X349975000Y-103405000D03*
X349975000Y-106705000D03*
%TD*%
%TO.C,D77*%
X103072500Y-162165000D03*
X103072500Y-165465000D03*
%TD*%
%TO.C,D75*%
X464260000Y-143055000D03*
X464260000Y-146355000D03*
%TD*%
%TO.C,D3*%
X131620000Y-85855000D03*
X131620000Y-89155000D03*
%TD*%
D18*
%TO.C,C1*%
X290810002Y-174580000D03*
X291770002Y-174580000D03*
%TD*%
D12*
%TO.C,D47*%
X240437500Y-124005000D03*
X240437500Y-127305000D03*
%TD*%
D28*
%TO.C,BT1*%
X296750000Y-164460000D03*
X296750000Y-170760000D03*
X300550000Y-164460000D03*
X300550000Y-170760000D03*
%TD*%
D12*
%TO.C,D10*%
X265495000Y-85605000D03*
X265495000Y-88905000D03*
%TD*%
%TO.C,D73*%
X426160000Y-143055000D03*
X426160000Y-146355000D03*
%TD*%
%TO.C,D29*%
X254725000Y-103405000D03*
X254725000Y-106705000D03*
%TD*%
%TO.C,D26*%
X197575000Y-103405000D03*
X197575000Y-106705000D03*
%TD*%
%TO.C,D14*%
X340450000Y-85905000D03*
X340450000Y-89205000D03*
%TD*%
%TO.C,D8*%
X227045000Y-85530000D03*
X227045000Y-88830000D03*
%TD*%
D15*
%TO.C,R3*%
X245420000Y-174910000D03*
X246440000Y-174910000D03*
%TD*%
D12*
%TO.C,D72*%
X380931250Y-143055000D03*
X380931250Y-146355000D03*
%TD*%
%TO.C,D18*%
X426160000Y-84355000D03*
X426160000Y-87655000D03*
%TD*%
%TO.C,D9*%
X246570000Y-85605000D03*
X246570000Y-88905000D03*
%TD*%
D29*
%TO.C,C7*%
X238970000Y-170730000D03*
X238970000Y-171690000D03*
%TD*%
D12*
%TO.C,D60*%
X143565000Y-138957500D03*
X143565000Y-142257500D03*
%TD*%
%TO.C,D46*%
X221387500Y-124005000D03*
X221387500Y-127305000D03*
%TD*%
%TO.C,D63*%
X174345000Y-143005000D03*
X174345000Y-146305000D03*
%TD*%
%TO.C,D38*%
X445210000Y-103305000D03*
X445210000Y-106605000D03*
%TD*%
%TO.C,D52*%
X334887500Y-124005000D03*
X334887500Y-127305000D03*
%TD*%
%TO.C,D57*%
X464260000Y-124005000D03*
X464260000Y-127305000D03*
%TD*%
%TO.C,D76*%
X83867500Y-162030000D03*
X83867500Y-165330000D03*
%TD*%
%TO.C,D56*%
X445210000Y-124005000D03*
X445210000Y-127305000D03*
%TD*%
%TO.C,D50*%
X297587500Y-124005000D03*
X297587500Y-127305000D03*
%TD*%
%TO.C,D69*%
X288062500Y-143055000D03*
X288062500Y-146355000D03*
%TD*%
%TO.C,D55*%
X426160000Y-124105000D03*
X426160000Y-127405000D03*
%TD*%
D18*
%TO.C,C2*%
X290810000Y-172610000D03*
X291770000Y-172610000D03*
%TD*%
D12*
%TO.C,D48*%
X259487500Y-124005000D03*
X259487500Y-127305000D03*
%TD*%
%TO.C,D51*%
X316637500Y-124005000D03*
X316637500Y-127305000D03*
%TD*%
D30*
%TO.C,R4*%
X107155000Y-93055000D03*
X106135000Y-93055000D03*
%TD*%
D12*
%TO.C,D85*%
X464260000Y-162205000D03*
X464260000Y-165505000D03*
%TD*%
%TO.C,D16*%
X398615000Y-87007500D03*
X398615000Y-90307500D03*
%TD*%
%TO.C,D54*%
X385693750Y-124005000D03*
X385693750Y-127305000D03*
%TD*%
%TO.C,D67*%
X249962500Y-143055000D03*
X249962500Y-146355000D03*
%TD*%
%TO.C,D33*%
X330925000Y-103405000D03*
X330925000Y-106705000D03*
%TD*%
%TO.C,D42*%
X138043750Y-124005000D03*
X138043750Y-127305000D03*
%TD*%
%TO.C,D62*%
X154712500Y-143055000D03*
X154712500Y-146355000D03*
%TD*%
%TO.C,D30*%
X273775000Y-103305000D03*
X273775000Y-106605000D03*
%TD*%
%TO.C,D78*%
X171213750Y-162105000D03*
X171213750Y-165405000D03*
%TD*%
%TO.C,D61*%
X345212500Y-143155000D03*
X345212500Y-146455000D03*
%TD*%
D31*
%TO.C,D35*%
X374625000Y-100835000D03*
X374625000Y-97535000D03*
%TD*%
D12*
%TO.C,D24*%
X159475000Y-103405000D03*
X159475000Y-106705000D03*
%TD*%
D27*
%TO.C,C4*%
X221835000Y-165280000D03*
X220285000Y-165280000D03*
%TD*%
D12*
%TO.C,D11*%
X284845000Y-85680000D03*
X284845000Y-88980000D03*
%TD*%
%TO.C,D5*%
X169895000Y-85655000D03*
X169895000Y-88955000D03*
%TD*%
D31*
%TO.C,D87*%
X369025000Y-109905000D03*
X369025000Y-106605000D03*
%TD*%
D12*
%TO.C,D21*%
X83967500Y-104705000D03*
X83967500Y-108005000D03*
%TD*%
%TO.C,D68*%
X269012500Y-143055000D03*
X269012500Y-146355000D03*
%TD*%
M02*
