%TF.GenerationSoftware,KiCad,Pcbnew,8.0.8*%
%TF.CreationDate,2025-03-31T12:37:53+02:00*%
%TF.ProjectId,xt_pcb,78745f70-6362-42e6-9b69-6361645f7063,rev?*%
%TF.SameCoordinates,Original*%
%TF.FileFunction,Soldermask,Bot*%
%TF.FilePolarity,Negative*%
%FSLAX46Y46*%
G04 Gerber Fmt 4.6, Leading zero omitted, Abs format (unit mm)*
G04 Created by KiCad (PCBNEW 8.0.8) date 2025-03-31 12:37:53*
%MOMM*%
%LPD*%
G01*
G04 APERTURE LIST*
G04 Aperture macros list*
%AMRoundRect*
0 Rectangle with rounded corners*
0 $1 Rounding radius*
0 $2 $3 $4 $5 $6 $7 $8 $9 X,Y pos of 4 corners*
0 Add a 4 corners polygon primitive as box body*
4,1,4,$2,$3,$4,$5,$6,$7,$8,$9,$2,$3,0*
0 Add four circle primitives for the rounded corners*
1,1,$1+$1,$2,$3*
1,1,$1+$1,$4,$5*
1,1,$1+$1,$6,$7*
1,1,$1+$1,$8,$9*
0 Add four rect primitives between the rounded corners*
20,1,$1+$1,$2,$3,$4,$5,0*
20,1,$1+$1,$4,$5,$6,$7,0*
20,1,$1+$1,$6,$7,$8,$9,0*
20,1,$1+$1,$8,$9,$2,$3,0*%
G04 Aperture macros list end*
%ADD10RoundRect,0.250000X1.025000X1.000000X-1.025000X1.000000X-1.025000X-1.000000X1.025000X-1.000000X0*%
%ADD11C,1.750000*%
%ADD12C,4.000000*%
%ADD13C,3.600000*%
%ADD14C,3.048000*%
%ADD15C,3.987800*%
%ADD16RoundRect,0.250000X-1.025000X-1.000000X1.025000X-1.000000X1.025000X1.000000X-1.025000X1.000000X0*%
%ADD17RoundRect,0.225000X-0.375000X0.225000X-0.375000X-0.225000X0.375000X-0.225000X0.375000X0.225000X0*%
%ADD18C,0.650000*%
%ADD19R,0.600000X1.450000*%
%ADD20R,0.300000X1.450000*%
%ADD21O,1.000000X1.600000*%
%ADD22O,1.000000X2.100000*%
%ADD23RoundRect,0.135000X-0.135000X-0.185000X0.135000X-0.185000X0.135000X0.185000X-0.135000X0.185000X0*%
%ADD24RoundRect,0.375000X-0.625000X-0.375000X0.625000X-0.375000X0.625000X0.375000X-0.625000X0.375000X0*%
%ADD25RoundRect,0.500000X-0.500000X-1.400000X0.500000X-1.400000X0.500000X1.400000X-0.500000X1.400000X0*%
%ADD26RoundRect,0.140000X-0.140000X-0.170000X0.140000X-0.170000X0.140000X0.170000X-0.140000X0.170000X0*%
%ADD27RoundRect,0.140000X0.170000X-0.140000X0.170000X0.140000X-0.170000X0.140000X-0.170000X-0.140000X0*%
%ADD28R,0.550000X1.500000*%
%ADD29R,1.500000X0.550000*%
%ADD30RoundRect,0.150000X-0.625000X0.150000X-0.625000X-0.150000X0.625000X-0.150000X0.625000X0.150000X0*%
%ADD31RoundRect,0.250000X-0.650000X0.350000X-0.650000X-0.350000X0.650000X-0.350000X0.650000X0.350000X0*%
%ADD32RoundRect,0.150000X-0.150000X0.825000X-0.150000X-0.825000X0.150000X-0.825000X0.150000X0.825000X0*%
%ADD33R,1.200000X1.400000*%
%ADD34RoundRect,0.135000X-0.185000X0.135000X-0.185000X-0.135000X0.185000X-0.135000X0.185000X0.135000X0*%
%ADD35RoundRect,0.225000X0.225000X0.250000X-0.225000X0.250000X-0.225000X-0.250000X0.225000X-0.250000X0*%
%ADD36R,1.000000X1.700000*%
%ADD37RoundRect,0.140000X-0.170000X0.140000X-0.170000X-0.140000X0.170000X-0.140000X0.170000X0.140000X0*%
%ADD38RoundRect,0.135000X0.135000X0.185000X-0.135000X0.185000X-0.135000X-0.185000X0.135000X-0.185000X0*%
%ADD39RoundRect,0.225000X0.375000X-0.225000X0.375000X0.225000X-0.375000X0.225000X-0.375000X-0.225000X0*%
G04 APERTURE END LIST*
D10*
%TO.C,SW79*%
X444495000Y-150145000D03*
D11*
X442490000Y-147605000D03*
D12*
X437410000Y-147605000D03*
D11*
X432330000Y-147605000D03*
D10*
X431568000Y-152685000D03*
D13*
X441220000Y-150145000D03*
X434870000Y-152685000D03*
%TD*%
D10*
%TO.C,SW43*%
X101595000Y-131095000D03*
D11*
X99590000Y-128555000D03*
D12*
X94510000Y-128555000D03*
D11*
X89430000Y-128555000D03*
D10*
X88668000Y-133635000D03*
D13*
X98320000Y-131095000D03*
X91970000Y-133635000D03*
%TD*%
D14*
%TO.C,SW93*%
X361193250Y-140620000D03*
D15*
X361193250Y-155830000D03*
D14*
X385069250Y-140620000D03*
D15*
X385069250Y-155830000D03*
%TD*%
D10*
%TO.C,SW46*%
X182572500Y-131095000D03*
D11*
X180567500Y-128555000D03*
D12*
X175487500Y-128555000D03*
D11*
X170407500Y-128555000D03*
D10*
X169645500Y-133635000D03*
D13*
X179297500Y-131095000D03*
X172947500Y-133635000D03*
%TD*%
D10*
%TO.C,SW36*%
X377835000Y-92995000D03*
D11*
X375830000Y-90455000D03*
D12*
X370750000Y-90455000D03*
D11*
X365670000Y-90455000D03*
D10*
X364908000Y-95535000D03*
D13*
X374560000Y-92995000D03*
X368210000Y-95535000D03*
%TD*%
D10*
%TO.C,SW72*%
X230197500Y-150145000D03*
D11*
X228192500Y-147605000D03*
D12*
X223112500Y-147605000D03*
D11*
X218032500Y-147605000D03*
D10*
X217270500Y-152685000D03*
D13*
X226922500Y-150145000D03*
X220572500Y-152685000D03*
%TD*%
D10*
%TO.C,SW25*%
X158760000Y-112045000D03*
D11*
X156755000Y-109505000D03*
D12*
X151675000Y-109505000D03*
D11*
X146595000Y-109505000D03*
D10*
X145833000Y-114585000D03*
D13*
X155485000Y-112045000D03*
X149135000Y-114585000D03*
%TD*%
D10*
%TO.C,SW38*%
X425445000Y-112045000D03*
D11*
X423440000Y-109505000D03*
D12*
X418360000Y-109505000D03*
D11*
X413280000Y-109505000D03*
D10*
X412518000Y-114585000D03*
D13*
X422170000Y-112045000D03*
X415820000Y-114585000D03*
%TD*%
D10*
%TO.C,SW62*%
X368310000Y-112045000D03*
D11*
X366305000Y-109505000D03*
D12*
X361225000Y-109505000D03*
D11*
X356145000Y-109505000D03*
D10*
X355383000Y-114585000D03*
D13*
X365035000Y-112045000D03*
X358685000Y-114585000D03*
%TD*%
D10*
%TO.C,SW28*%
X215910000Y-112045000D03*
D11*
X213905000Y-109505000D03*
D12*
X208825000Y-109505000D03*
D11*
X203745000Y-109505000D03*
D10*
X202983000Y-114585000D03*
D13*
X212635000Y-112045000D03*
X206285000Y-114585000D03*
%TD*%
D10*
%TO.C,SW9*%
X206385000Y-92995000D03*
D11*
X204380000Y-90455000D03*
D12*
X199300000Y-90455000D03*
D11*
X194220000Y-90455000D03*
D10*
X193458000Y-95535000D03*
D13*
X203110000Y-92995000D03*
X196760000Y-95535000D03*
%TD*%
D10*
%TO.C,SW23*%
X101595000Y-112045000D03*
D11*
X99590000Y-109505000D03*
D12*
X94510000Y-109505000D03*
D11*
X89430000Y-109505000D03*
D10*
X88668000Y-114585000D03*
D13*
X98320000Y-112045000D03*
X91970000Y-114585000D03*
%TD*%
D10*
%TO.C,SW60*%
X344497500Y-150145000D03*
D11*
X342492500Y-147605000D03*
D12*
X337412500Y-147605000D03*
D11*
X332332500Y-147605000D03*
D10*
X331570500Y-152685000D03*
D13*
X341222500Y-150145000D03*
X334872500Y-152685000D03*
%TD*%
D10*
%TO.C,SW5*%
X130185000Y-92995000D03*
D11*
X128180000Y-90455000D03*
D12*
X123100000Y-90455000D03*
D11*
X118020000Y-90455000D03*
D10*
X117258000Y-95535000D03*
D13*
X126910000Y-92995000D03*
X120560000Y-95535000D03*
%TD*%
D10*
%TO.C,SW3*%
X82545000Y-92995000D03*
D11*
X80540000Y-90455000D03*
D12*
X75460000Y-90455000D03*
D11*
X70380000Y-90455000D03*
D10*
X69618000Y-95535000D03*
D13*
X79270000Y-92995000D03*
X72920000Y-95535000D03*
%TD*%
D10*
%TO.C,SW56*%
X384978750Y-131095000D03*
D11*
X382973750Y-128555000D03*
D12*
X377893750Y-128555000D03*
D11*
X372813750Y-128555000D03*
D10*
X372051750Y-133635000D03*
D13*
X381703750Y-131095000D03*
X375353750Y-133635000D03*
%TD*%
D10*
%TO.C,SW20*%
X444495000Y-92995000D03*
D11*
X442490000Y-90455000D03*
D12*
X437410000Y-90455000D03*
D11*
X432330000Y-90455000D03*
D10*
X431568000Y-95535000D03*
D13*
X441220000Y-92995000D03*
X434870000Y-95535000D03*
%TD*%
D16*
%TO.C,SW97*%
X356521250Y-145065000D03*
D11*
X358526250Y-147605000D03*
D12*
X363606250Y-147605000D03*
D11*
X368686250Y-147605000D03*
D16*
X369448250Y-142525000D03*
D13*
X359796250Y-145065000D03*
X366146250Y-142525000D03*
%TD*%
D10*
%TO.C,SW63*%
X132566250Y-150145000D03*
D11*
X130561250Y-147605000D03*
D12*
X125481250Y-147605000D03*
D11*
X120401250Y-147605000D03*
D10*
X119639250Y-152685000D03*
D13*
X129291250Y-150145000D03*
X122941250Y-152685000D03*
%TD*%
D10*
%TO.C,SW42*%
X82545000Y-131095000D03*
D11*
X80540000Y-128555000D03*
D12*
X75460000Y-128555000D03*
D11*
X70380000Y-128555000D03*
D10*
X69618000Y-133635000D03*
D13*
X79270000Y-131095000D03*
X72920000Y-133635000D03*
%TD*%
D10*
%TO.C,SW83*%
X170498750Y-169195000D03*
D11*
X168493750Y-166655000D03*
D12*
X163413750Y-166655000D03*
D11*
X158333750Y-166655000D03*
D10*
X157571750Y-171735000D03*
D13*
X167223750Y-169195000D03*
X160873750Y-171735000D03*
%TD*%
D10*
%TO.C,SW47*%
X201622500Y-131095000D03*
D11*
X199617500Y-128555000D03*
D12*
X194537500Y-128555000D03*
D11*
X189457500Y-128555000D03*
D10*
X188695500Y-133635000D03*
D13*
X198347500Y-131095000D03*
X191997500Y-133635000D03*
%TD*%
D10*
%TO.C,SW85*%
X263367500Y-169195000D03*
D11*
X261362500Y-166655000D03*
D12*
X256282500Y-166655000D03*
D11*
X251202500Y-166655000D03*
D10*
X250440500Y-171735000D03*
D13*
X260092500Y-169195000D03*
X253742500Y-171735000D03*
%TD*%
D10*
%TO.C,SW90*%
X463545000Y-169195000D03*
D11*
X461540000Y-166655000D03*
D12*
X456460000Y-166655000D03*
D11*
X451380000Y-166655000D03*
D10*
X450618000Y-171735000D03*
D13*
X460270000Y-169195000D03*
X453920000Y-171735000D03*
%TD*%
D10*
%TO.C,SW82*%
X101595000Y-169195000D03*
D11*
X99590000Y-166655000D03*
D12*
X94510000Y-166655000D03*
D11*
X89430000Y-166655000D03*
D10*
X88668000Y-171735000D03*
D13*
X98320000Y-169195000D03*
X91970000Y-171735000D03*
%TD*%
D10*
%TO.C,SW13*%
X282585000Y-92995000D03*
D11*
X280580000Y-90455000D03*
D12*
X275500000Y-90455000D03*
D11*
X270420000Y-90455000D03*
D10*
X269658000Y-95535000D03*
D13*
X279310000Y-92995000D03*
X272960000Y-95535000D03*
%TD*%
D10*
%TO.C,SW24*%
X134947500Y-112045000D03*
D11*
X132942500Y-109505000D03*
D12*
X127862500Y-109505000D03*
D11*
X122782500Y-109505000D03*
D10*
X122020500Y-114585000D03*
D13*
X131672500Y-112045000D03*
X125322500Y-114585000D03*
%TD*%
D14*
%TO.C,SW92*%
X389831750Y-135540000D03*
D15*
X389831750Y-120330000D03*
D14*
X365955750Y-135540000D03*
D15*
X365955750Y-120330000D03*
%TD*%
D10*
%TO.C,SW81*%
X82545000Y-169195000D03*
D11*
X80540000Y-166655000D03*
D12*
X75460000Y-166655000D03*
D11*
X70380000Y-166655000D03*
D10*
X69618000Y-171735000D03*
D13*
X79270000Y-169195000D03*
X72920000Y-171735000D03*
%TD*%
D10*
%TO.C,SW22*%
X82545000Y-112045000D03*
D11*
X80540000Y-109505000D03*
D12*
X75460000Y-109505000D03*
D11*
X70380000Y-109505000D03*
D10*
X69618000Y-114585000D03*
D13*
X79270000Y-112045000D03*
X72920000Y-114585000D03*
%TD*%
D10*
%TO.C,SW14*%
X301635000Y-92995000D03*
D11*
X299630000Y-90455000D03*
D12*
X294550000Y-90455000D03*
D11*
X289470000Y-90455000D03*
D10*
X288708000Y-95535000D03*
D13*
X298360000Y-92995000D03*
X292010000Y-95535000D03*
%TD*%
D10*
%TO.C,SW49*%
X239722500Y-131095000D03*
D11*
X237717500Y-128555000D03*
D12*
X232637500Y-128555000D03*
D11*
X227557500Y-128555000D03*
D10*
X226795500Y-133635000D03*
D13*
X236447500Y-131095000D03*
X230097500Y-133635000D03*
%TD*%
D10*
%TO.C,SW54*%
X334972500Y-131095000D03*
D11*
X332967500Y-128555000D03*
D12*
X327887500Y-128555000D03*
D11*
X322807500Y-128555000D03*
D10*
X322045500Y-133635000D03*
D13*
X331697500Y-131095000D03*
X325347500Y-133635000D03*
%TD*%
D10*
%TO.C,SW10*%
X225435000Y-92995000D03*
D11*
X223430000Y-90455000D03*
D12*
X218350000Y-90455000D03*
D11*
X213270000Y-90455000D03*
D10*
X212508000Y-95535000D03*
D13*
X222160000Y-92995000D03*
X215810000Y-95535000D03*
%TD*%
D10*
%TO.C,SW15*%
X320685000Y-92995000D03*
D11*
X318680000Y-90455000D03*
D12*
X313600000Y-90455000D03*
D11*
X308520000Y-90455000D03*
D10*
X307758000Y-95535000D03*
D13*
X317410000Y-92995000D03*
X311060000Y-95535000D03*
%TD*%
D10*
%TO.C,SW29*%
X234960000Y-112045000D03*
D11*
X232955000Y-109505000D03*
D12*
X227875000Y-109505000D03*
D11*
X222795000Y-109505000D03*
D10*
X222033000Y-114585000D03*
D13*
X231685000Y-112045000D03*
X225335000Y-114585000D03*
%TD*%
D10*
%TO.C,SW67*%
X101595000Y-150145000D03*
D11*
X99590000Y-147605000D03*
D12*
X94510000Y-147605000D03*
D11*
X89430000Y-147605000D03*
D10*
X88668000Y-152685000D03*
D13*
X98320000Y-150145000D03*
X91970000Y-152685000D03*
%TD*%
D10*
%TO.C,SW50*%
X258772500Y-131095000D03*
D11*
X256767500Y-128555000D03*
D12*
X251687500Y-128555000D03*
D11*
X246607500Y-128555000D03*
D10*
X245845500Y-133635000D03*
D13*
X255497500Y-131095000D03*
X249147500Y-133635000D03*
%TD*%
D10*
%TO.C,SW58*%
X444495000Y-131095000D03*
D11*
X442490000Y-128555000D03*
D12*
X437410000Y-128555000D03*
D11*
X432330000Y-128555000D03*
D10*
X431568000Y-133635000D03*
D13*
X441220000Y-131095000D03*
X434870000Y-133635000D03*
%TD*%
D10*
%TO.C,SW55*%
X354022500Y-131095000D03*
D11*
X352017500Y-128555000D03*
D12*
X346937500Y-128555000D03*
D11*
X341857500Y-128555000D03*
D10*
X341095500Y-133635000D03*
D13*
X350747500Y-131095000D03*
X344397500Y-133635000D03*
%TD*%
D10*
%TO.C,SW16*%
X339735000Y-92995000D03*
D11*
X337730000Y-90455000D03*
D12*
X332650000Y-90455000D03*
D11*
X327570000Y-90455000D03*
D10*
X326808000Y-95535000D03*
D13*
X336460000Y-92995000D03*
X330110000Y-95535000D03*
%TD*%
D14*
%TO.C,SW95*%
X123068250Y-140620000D03*
D15*
X123068250Y-155830000D03*
D14*
X146944250Y-140620000D03*
D15*
X146944250Y-155830000D03*
%TD*%
D10*
%TO.C,SW96*%
X380216250Y-150145000D03*
D11*
X378211250Y-147605000D03*
D12*
X373131250Y-147605000D03*
D11*
X368051250Y-147605000D03*
D10*
X367289250Y-152685000D03*
D13*
X376941250Y-150145000D03*
X370591250Y-152685000D03*
%TD*%
D10*
%TO.C,SW73*%
X249247500Y-150145000D03*
D11*
X247242500Y-147605000D03*
D12*
X242162500Y-147605000D03*
D11*
X237082500Y-147605000D03*
D10*
X236320500Y-152685000D03*
D13*
X245972500Y-150145000D03*
X239622500Y-152685000D03*
%TD*%
D10*
%TO.C,SW37*%
X392122500Y-112045000D03*
D11*
X390117500Y-109505000D03*
D12*
X385037500Y-109505000D03*
D11*
X379957500Y-109505000D03*
D10*
X379195500Y-114585000D03*
D13*
X388847500Y-112045000D03*
X382497500Y-114585000D03*
%TD*%
D10*
%TO.C,SW71*%
X211147500Y-150145000D03*
D11*
X209142500Y-147605000D03*
D12*
X204062500Y-147605000D03*
D11*
X198982500Y-147605000D03*
D10*
X198220500Y-152685000D03*
D13*
X207872500Y-150145000D03*
X201522500Y-152685000D03*
%TD*%
D10*
%TO.C,SW52*%
X296872500Y-131095000D03*
D11*
X294867500Y-128555000D03*
D12*
X289787500Y-128555000D03*
D11*
X284707500Y-128555000D03*
D10*
X283945500Y-133635000D03*
D13*
X293597500Y-131095000D03*
X287247500Y-133635000D03*
%TD*%
D10*
%TO.C,SW34*%
X330210000Y-112045000D03*
D11*
X328205000Y-109505000D03*
D12*
X323125000Y-109505000D03*
D11*
X318045000Y-109505000D03*
D10*
X317283000Y-114585000D03*
D13*
X326935000Y-112045000D03*
X320585000Y-114585000D03*
%TD*%
D14*
%TO.C,SW94*%
X368337000Y-83470000D03*
D15*
X368337000Y-98680000D03*
D14*
X392213000Y-83470000D03*
D15*
X392213000Y-98680000D03*
%TD*%
D10*
%TO.C,SW59*%
X463545000Y-131095000D03*
D11*
X461540000Y-128555000D03*
D12*
X456460000Y-128555000D03*
D11*
X451380000Y-128555000D03*
D10*
X450618000Y-133635000D03*
D13*
X460270000Y-131095000D03*
X453920000Y-133635000D03*
%TD*%
D10*
%TO.C,SW75*%
X287347500Y-150145000D03*
D11*
X285342500Y-147605000D03*
D12*
X280262500Y-147605000D03*
D11*
X275182500Y-147605000D03*
D10*
X274420500Y-152685000D03*
D13*
X284072500Y-150145000D03*
X277722500Y-152685000D03*
%TD*%
D16*
%TO.C,SW44*%
X118445000Y-126030000D03*
D11*
X120450000Y-128570000D03*
D12*
X125530000Y-128570000D03*
D11*
X130610000Y-128570000D03*
D16*
X131372000Y-123490000D03*
D13*
X121720000Y-126030000D03*
X128070000Y-123490000D03*
%TD*%
D10*
%TO.C,SW41*%
X137328750Y-131095000D03*
D11*
X135323750Y-128555000D03*
D12*
X130243750Y-128555000D03*
D11*
X125163750Y-128555000D03*
D10*
X124401750Y-133635000D03*
D13*
X134053750Y-131095000D03*
X127703750Y-133635000D03*
%TD*%
D10*
%TO.C,SW6*%
X149235000Y-92995000D03*
D11*
X147230000Y-90455000D03*
D12*
X142150000Y-90455000D03*
D11*
X137070000Y-90455000D03*
D10*
X136308000Y-95535000D03*
D13*
X145960000Y-92995000D03*
X139610000Y-95535000D03*
%TD*%
D10*
%TO.C,SW21*%
X463545000Y-92995000D03*
D11*
X461540000Y-90455000D03*
D12*
X456460000Y-90455000D03*
D11*
X451380000Y-90455000D03*
D10*
X450618000Y-95535000D03*
D13*
X460270000Y-92995000D03*
X453920000Y-95535000D03*
%TD*%
D10*
%TO.C,SW77*%
X325447500Y-150145000D03*
D11*
X323442500Y-147605000D03*
D12*
X318362500Y-147605000D03*
D11*
X313282500Y-147605000D03*
D10*
X312520500Y-152685000D03*
D13*
X322172500Y-150145000D03*
X315822500Y-152685000D03*
%TD*%
D10*
%TO.C,SW4*%
X101595000Y-92995000D03*
D11*
X99590000Y-90455000D03*
D12*
X94510000Y-90455000D03*
D11*
X89430000Y-90455000D03*
D10*
X88668000Y-95535000D03*
D13*
X98320000Y-92995000D03*
X91970000Y-95535000D03*
%TD*%
D10*
%TO.C,SW2*%
X396885000Y-92995000D03*
D11*
X394880000Y-90455000D03*
D12*
X389800000Y-90455000D03*
D11*
X384720000Y-90455000D03*
D10*
X383958000Y-95535000D03*
D13*
X393610000Y-92995000D03*
X387260000Y-95535000D03*
%TD*%
D16*
%TO.C,SW1*%
X373190000Y-87915000D03*
D11*
X375195000Y-90455000D03*
D12*
X380275000Y-90455000D03*
D11*
X385355000Y-90455000D03*
D16*
X386117000Y-85375000D03*
D13*
X376465000Y-87915000D03*
X382815000Y-85375000D03*
%TD*%
D10*
%TO.C,SW12*%
X263535000Y-92995000D03*
D11*
X261530000Y-90455000D03*
D12*
X256450000Y-90455000D03*
D11*
X251370000Y-90455000D03*
D10*
X250608000Y-95535000D03*
D13*
X260260000Y-92995000D03*
X253910000Y-95535000D03*
%TD*%
D10*
%TO.C,SW66*%
X82545000Y-150145000D03*
D11*
X80540000Y-147605000D03*
D12*
X75460000Y-147605000D03*
D11*
X70380000Y-147605000D03*
D10*
X69618000Y-152685000D03*
D13*
X79270000Y-150145000D03*
X72920000Y-152685000D03*
%TD*%
D10*
%TO.C,SW68*%
X153997500Y-150145000D03*
D11*
X151992500Y-147605000D03*
D12*
X146912500Y-147605000D03*
D11*
X141832500Y-147605000D03*
D10*
X141070500Y-152685000D03*
D13*
X150722500Y-150145000D03*
X144372500Y-152685000D03*
%TD*%
D10*
%TO.C,SW40*%
X463545000Y-112045000D03*
D11*
X461540000Y-109505000D03*
D12*
X456460000Y-109505000D03*
D11*
X451380000Y-109505000D03*
D10*
X450618000Y-114585000D03*
D13*
X460270000Y-112045000D03*
X453920000Y-114585000D03*
%TD*%
D10*
%TO.C,SW45*%
X163522500Y-131095000D03*
D11*
X161517500Y-128555000D03*
D12*
X156437500Y-128555000D03*
D11*
X151357500Y-128555000D03*
D10*
X150595500Y-133635000D03*
D13*
X160247500Y-131095000D03*
X153897500Y-133635000D03*
%TD*%
D10*
%TO.C,SW7*%
X168285000Y-92995000D03*
D11*
X166280000Y-90455000D03*
D12*
X161200000Y-90455000D03*
D11*
X156120000Y-90455000D03*
D10*
X155358000Y-95535000D03*
D13*
X165010000Y-92995000D03*
X158660000Y-95535000D03*
%TD*%
D10*
%TO.C,SW48*%
X220672500Y-131095000D03*
D11*
X218667500Y-128555000D03*
D12*
X213587500Y-128555000D03*
D11*
X208507500Y-128555000D03*
D10*
X207745500Y-133635000D03*
D13*
X217397500Y-131095000D03*
X211047500Y-133635000D03*
%TD*%
D10*
%TO.C,SW31*%
X273060000Y-112045000D03*
D11*
X271055000Y-109505000D03*
D12*
X265975000Y-109505000D03*
D11*
X260895000Y-109505000D03*
D10*
X260133000Y-114585000D03*
D13*
X269785000Y-112045000D03*
X263435000Y-114585000D03*
%TD*%
D10*
%TO.C,SW26*%
X177810000Y-112045000D03*
D11*
X175805000Y-109505000D03*
D12*
X170725000Y-109505000D03*
D11*
X165645000Y-109505000D03*
D10*
X164883000Y-114585000D03*
D13*
X174535000Y-112045000D03*
X168185000Y-114585000D03*
%TD*%
D10*
%TO.C,SW35*%
X349260000Y-112045000D03*
D11*
X347255000Y-109505000D03*
D12*
X342175000Y-109505000D03*
D11*
X337095000Y-109505000D03*
D10*
X336333000Y-114585000D03*
D13*
X345985000Y-112045000D03*
X339635000Y-114585000D03*
%TD*%
D10*
%TO.C,SW84*%
X191930000Y-169195000D03*
D11*
X189925000Y-166655000D03*
D12*
X184845000Y-166655000D03*
D11*
X179765000Y-166655000D03*
D10*
X179003000Y-171735000D03*
D13*
X188655000Y-169195000D03*
X182305000Y-171735000D03*
%TD*%
D10*
%TO.C,SW78*%
X425445000Y-150145000D03*
D11*
X423440000Y-147605000D03*
D12*
X418360000Y-147605000D03*
D11*
X413280000Y-147605000D03*
D10*
X412518000Y-152685000D03*
D13*
X422170000Y-150145000D03*
X415820000Y-152685000D03*
%TD*%
D10*
%TO.C,SW32*%
X292110000Y-112045000D03*
D11*
X290105000Y-109505000D03*
D12*
X285025000Y-109505000D03*
D11*
X279945000Y-109505000D03*
D10*
X279183000Y-114585000D03*
D13*
X288835000Y-112045000D03*
X282485000Y-114585000D03*
%TD*%
D10*
%TO.C,SW89*%
X444495000Y-169195000D03*
D11*
X442490000Y-166655000D03*
D12*
X437410000Y-166655000D03*
D11*
X432330000Y-166655000D03*
D10*
X431568000Y-171735000D03*
D13*
X441220000Y-169195000D03*
X434870000Y-171735000D03*
%TD*%
D10*
%TO.C,SW69*%
X173047500Y-150145000D03*
D11*
X171042500Y-147605000D03*
D12*
X165962500Y-147605000D03*
D11*
X160882500Y-147605000D03*
D10*
X160120500Y-152685000D03*
D13*
X169772500Y-150145000D03*
X163422500Y-152685000D03*
%TD*%
D10*
%TO.C,SW17*%
X358785000Y-92995000D03*
D11*
X356780000Y-90455000D03*
D12*
X351700000Y-90455000D03*
D11*
X346620000Y-90455000D03*
D10*
X345858000Y-95535000D03*
D13*
X355510000Y-92995000D03*
X349160000Y-95535000D03*
%TD*%
D10*
%TO.C,SW39*%
X444495000Y-112045000D03*
D11*
X442490000Y-109505000D03*
D12*
X437410000Y-109505000D03*
D11*
X432330000Y-109505000D03*
D10*
X431568000Y-114585000D03*
D13*
X441220000Y-112045000D03*
X434870000Y-114585000D03*
%TD*%
D10*
%TO.C,SW74*%
X268297500Y-150145000D03*
D11*
X266292500Y-147605000D03*
D12*
X261212500Y-147605000D03*
D11*
X256132500Y-147605000D03*
D10*
X255370500Y-152685000D03*
D13*
X265022500Y-150145000D03*
X258672500Y-152685000D03*
%TD*%
D10*
%TO.C,SW30*%
X254010000Y-112045000D03*
D11*
X252005000Y-109505000D03*
D12*
X246925000Y-109505000D03*
D11*
X241845000Y-109505000D03*
D10*
X241083000Y-114585000D03*
D13*
X250735000Y-112045000D03*
X244385000Y-114585000D03*
%TD*%
D10*
%TO.C,SW64*%
X396885000Y-150145000D03*
D11*
X394880000Y-147605000D03*
D12*
X389800000Y-147605000D03*
D11*
X384720000Y-147605000D03*
D10*
X383958000Y-152685000D03*
D13*
X393610000Y-150145000D03*
X387260000Y-152685000D03*
%TD*%
D10*
%TO.C,SW19*%
X425445000Y-92995000D03*
D11*
X423440000Y-90455000D03*
D12*
X418360000Y-90455000D03*
D11*
X413280000Y-90455000D03*
D10*
X412518000Y-95535000D03*
D13*
X422170000Y-92995000D03*
X415820000Y-95535000D03*
%TD*%
D10*
%TO.C,SW57*%
X425445000Y-131095000D03*
D11*
X423440000Y-128555000D03*
D12*
X418360000Y-128555000D03*
D11*
X413280000Y-128555000D03*
D10*
X412518000Y-133635000D03*
D13*
X422170000Y-131095000D03*
X415820000Y-133635000D03*
%TD*%
D10*
%TO.C,SW8*%
X187335000Y-92995000D03*
D11*
X185330000Y-90455000D03*
D12*
X180250000Y-90455000D03*
D11*
X175170000Y-90455000D03*
D10*
X174408000Y-95535000D03*
D13*
X184060000Y-92995000D03*
X177710000Y-95535000D03*
%TD*%
D10*
%TO.C,SW51*%
X277822500Y-131095000D03*
D11*
X275817500Y-128555000D03*
D12*
X270737500Y-128555000D03*
D11*
X265657500Y-128555000D03*
D10*
X264895500Y-133635000D03*
D13*
X274547500Y-131095000D03*
X268197500Y-133635000D03*
%TD*%
D10*
%TO.C,SW33*%
X311160000Y-112045000D03*
D11*
X309155000Y-109505000D03*
D12*
X304075000Y-109505000D03*
D11*
X298995000Y-109505000D03*
D10*
X298233000Y-114585000D03*
D13*
X307885000Y-112045000D03*
X301535000Y-114585000D03*
%TD*%
D10*
%TO.C,SW76*%
X306397500Y-150145000D03*
D11*
X304392500Y-147605000D03*
D12*
X299312500Y-147605000D03*
D11*
X294232500Y-147605000D03*
D10*
X293470500Y-152685000D03*
D13*
X303122500Y-150145000D03*
X296772500Y-152685000D03*
%TD*%
D10*
%TO.C,SW11*%
X244485000Y-92995000D03*
D11*
X242480000Y-90455000D03*
D12*
X237400000Y-90455000D03*
D11*
X232320000Y-90455000D03*
D10*
X231558000Y-95535000D03*
D13*
X241210000Y-92995000D03*
X234860000Y-95535000D03*
%TD*%
D10*
%TO.C,SW80*%
X463545000Y-150145000D03*
D11*
X461540000Y-147605000D03*
D12*
X456460000Y-147605000D03*
D11*
X451380000Y-147605000D03*
D10*
X450618000Y-152685000D03*
D13*
X460270000Y-150145000D03*
X453920000Y-152685000D03*
%TD*%
D10*
%TO.C,SW27*%
X196860000Y-112045000D03*
D11*
X194855000Y-109505000D03*
D12*
X189775000Y-109505000D03*
D11*
X184695000Y-109505000D03*
D10*
X183933000Y-114585000D03*
D13*
X193585000Y-112045000D03*
X187235000Y-114585000D03*
%TD*%
D10*
%TO.C,SW88*%
X425445000Y-169195000D03*
D11*
X423440000Y-166655000D03*
D12*
X418360000Y-166655000D03*
D11*
X413280000Y-166655000D03*
D10*
X412518000Y-171735000D03*
D13*
X422170000Y-169195000D03*
X415820000Y-171735000D03*
%TD*%
D10*
%TO.C,SW87*%
X356236250Y-169195000D03*
D11*
X354231250Y-166655000D03*
D12*
X349151250Y-166655000D03*
D11*
X344071250Y-166655000D03*
D10*
X343309250Y-171735000D03*
D13*
X352961250Y-169195000D03*
X346611250Y-171735000D03*
%TD*%
D16*
%TO.C,SW61*%
X127921250Y-145065000D03*
D11*
X129926250Y-147605000D03*
D12*
X135006250Y-147605000D03*
D11*
X140086250Y-147605000D03*
D16*
X140848250Y-142525000D03*
D13*
X131196250Y-145065000D03*
X137546250Y-142525000D03*
%TD*%
D10*
%TO.C,SW86*%
X334805000Y-169195000D03*
D11*
X332800000Y-166655000D03*
D12*
X327720000Y-166655000D03*
D11*
X322640000Y-166655000D03*
D10*
X321878000Y-171735000D03*
D13*
X331530000Y-169195000D03*
X325180000Y-171735000D03*
%TD*%
D10*
%TO.C,SW53*%
X315922500Y-131095000D03*
D11*
X313917500Y-128555000D03*
D12*
X308837500Y-128555000D03*
D11*
X303757500Y-128555000D03*
D10*
X302995500Y-133635000D03*
D13*
X312647500Y-131095000D03*
X306297500Y-133635000D03*
%TD*%
D14*
%TO.C,SW91*%
X308831250Y-173640000D03*
D15*
X308831250Y-158430000D03*
D14*
X208831250Y-173640000D03*
D15*
X208831250Y-158430000D03*
%TD*%
D10*
%TO.C,SW70*%
X192097500Y-150145000D03*
D11*
X190092500Y-147605000D03*
D12*
X185012500Y-147605000D03*
D11*
X179932500Y-147605000D03*
D10*
X179170500Y-152685000D03*
D13*
X188822500Y-150145000D03*
X182472500Y-152685000D03*
%TD*%
D17*
%TO.C,D66*%
X230912500Y-143055000D03*
X230912500Y-146355000D03*
%TD*%
%TO.C,D49*%
X278537500Y-124005000D03*
X278537500Y-127305000D03*
%TD*%
%TO.C,D82*%
X356951250Y-162105000D03*
X356951250Y-165405000D03*
%TD*%
%TO.C,D79*%
X192645000Y-162105000D03*
X192645000Y-165405000D03*
%TD*%
%TO.C,D32*%
X311875000Y-103405000D03*
X311875000Y-106705000D03*
%TD*%
%TO.C,D58*%
X83742500Y-143205000D03*
X83742500Y-146505000D03*
%TD*%
%TO.C,D64*%
X192812500Y-143155000D03*
X192812500Y-146455000D03*
%TD*%
%TO.C,D13*%
X321400000Y-85905000D03*
X321400000Y-89205000D03*
%TD*%
D18*
%TO.C,J2*%
X106515000Y-87675000D03*
X112295000Y-87675000D03*
D19*
X106155000Y-89120000D03*
X106955000Y-89120000D03*
D20*
X108155000Y-89120000D03*
X109155000Y-89120000D03*
X109655000Y-89120000D03*
X110655000Y-89120000D03*
D19*
X111855000Y-89120000D03*
X112655000Y-89120000D03*
X112655000Y-89120000D03*
X111855000Y-89120000D03*
D20*
X111155000Y-89120000D03*
X110155000Y-89120000D03*
X108655000Y-89120000D03*
X107655000Y-89120000D03*
D19*
X106955000Y-89120000D03*
X106155000Y-89120000D03*
D21*
X105085000Y-84025000D03*
D22*
X105085000Y-88205000D03*
D21*
X113725000Y-84025000D03*
D22*
X113725000Y-88205000D03*
%TD*%
D23*
%TO.C,R2*%
X245400000Y-173390000D03*
X246420000Y-173390000D03*
%TD*%
D17*
%TO.C,D7*%
X207845000Y-85455000D03*
X207845000Y-88755000D03*
%TD*%
D24*
%TO.C,U1*%
X228550000Y-170000000D03*
X228550000Y-167700000D03*
D25*
X234850000Y-167700000D03*
D24*
X228550000Y-165400000D03*
%TD*%
D17*
%TO.C,D36*%
X392837500Y-103405000D03*
X392837500Y-106705000D03*
%TD*%
%TO.C,D19*%
X445210000Y-84355000D03*
X445210000Y-87655000D03*
%TD*%
%TO.C,D43*%
X164237500Y-124005000D03*
X164237500Y-127305000D03*
%TD*%
%TO.C,D59*%
X102997500Y-143340000D03*
X102997500Y-146640000D03*
%TD*%
D26*
%TO.C,C3*%
X290810000Y-170640000D03*
X291770000Y-170640000D03*
%TD*%
D17*
%TO.C,D83*%
X426160000Y-162105000D03*
X426160000Y-165405000D03*
%TD*%
%TO.C,D6*%
X188820000Y-85405000D03*
X188820000Y-88705000D03*
%TD*%
%TO.C,D41*%
X102897500Y-123790000D03*
X102897500Y-127090000D03*
%TD*%
%TO.C,D15*%
X359500000Y-85905000D03*
X359500000Y-89205000D03*
%TD*%
%TO.C,D84*%
X445835000Y-162005000D03*
X445835000Y-165305000D03*
%TD*%
D27*
%TO.C,C6*%
X241100000Y-171690000D03*
X241100000Y-170730000D03*
%TD*%
D17*
%TO.C,D12*%
X302350000Y-85905000D03*
X302350000Y-89205000D03*
%TD*%
%TO.C,D37*%
X426160000Y-103305000D03*
X426160000Y-106605000D03*
%TD*%
%TO.C,D44*%
X183287500Y-124005000D03*
X183287500Y-127305000D03*
%TD*%
%TO.C,D39*%
X464260000Y-103305000D03*
X464260000Y-106605000D03*
%TD*%
%TO.C,D22*%
X102822500Y-104765000D03*
X102822500Y-108065000D03*
%TD*%
%TO.C,D86*%
X397600000Y-143055000D03*
X397600000Y-146355000D03*
%TD*%
%TO.C,D65*%
X211862500Y-143055000D03*
X211862500Y-146355000D03*
%TD*%
%TO.C,D2*%
X102922500Y-86015000D03*
X102922500Y-89315000D03*
%TD*%
%TO.C,D25*%
X178525000Y-103405000D03*
X178525000Y-106705000D03*
%TD*%
%TO.C,D4*%
X150920000Y-85730000D03*
X150920000Y-89030000D03*
%TD*%
%TO.C,D28*%
X235675000Y-103405000D03*
X235675000Y-106705000D03*
%TD*%
%TO.C,D74*%
X445560000Y-142880000D03*
X445560000Y-146180000D03*
%TD*%
D28*
%TO.C,U2*%
X282860000Y-172330000D03*
X282060000Y-172330000D03*
X281260000Y-172330000D03*
X280460000Y-172330000D03*
X279660000Y-172330000D03*
X278860000Y-172330000D03*
X278060000Y-172330000D03*
X277260000Y-172330000D03*
X276460000Y-172330000D03*
X275660000Y-172330000D03*
X274860000Y-172330000D03*
D29*
X273160000Y-170630000D03*
X273160000Y-169830000D03*
X273160000Y-169030000D03*
X273160000Y-168230000D03*
X273160000Y-167430000D03*
X273160000Y-166630000D03*
X273160000Y-165830000D03*
X273160000Y-165030000D03*
X273160000Y-164230000D03*
X273160000Y-163430000D03*
X273160000Y-162630000D03*
D28*
X274860000Y-160930000D03*
X275660000Y-160930000D03*
X276460000Y-160930000D03*
X277260000Y-160930000D03*
X278060000Y-160930000D03*
X278860000Y-160930000D03*
X279660000Y-160930000D03*
X280460000Y-160930000D03*
X281260000Y-160930000D03*
X282060000Y-160930000D03*
X282860000Y-160930000D03*
D29*
X284560000Y-162630000D03*
X284560000Y-163430000D03*
X284560000Y-164230000D03*
X284560000Y-165030000D03*
X284560000Y-165830000D03*
X284560000Y-166630000D03*
X284560000Y-167430000D03*
X284560000Y-168230000D03*
X284560000Y-169030000D03*
X284560000Y-169830000D03*
X284560000Y-170630000D03*
%TD*%
D27*
%TO.C,C8*%
X267300000Y-174210000D03*
X267300000Y-173250000D03*
%TD*%
D30*
%TO.C,J1*%
X110055000Y-108975000D03*
X110055000Y-109975000D03*
X110055000Y-110975000D03*
X110055000Y-111975000D03*
D31*
X113930000Y-107675000D03*
X113930000Y-113275000D03*
%TD*%
D17*
%TO.C,D40*%
X83842500Y-123555000D03*
X83842500Y-126855000D03*
%TD*%
%TO.C,D53*%
X354737500Y-124005000D03*
X354737500Y-127305000D03*
%TD*%
D32*
%TO.C,U3*%
X108570000Y-98890000D03*
X109840000Y-98890000D03*
X111110000Y-98890000D03*
X112380000Y-98890000D03*
X112380000Y-103840000D03*
X111110000Y-103840000D03*
X109840000Y-103840000D03*
X108570000Y-103840000D03*
%TD*%
D17*
%TO.C,D45*%
X202337500Y-124005000D03*
X202337500Y-127305000D03*
%TD*%
D23*
%TO.C,R5*%
X112175000Y-93145000D03*
X113195000Y-93145000D03*
%TD*%
D17*
%TO.C,D70*%
X307112500Y-143055000D03*
X307112500Y-146355000D03*
%TD*%
%TO.C,D1*%
X83892500Y-85505000D03*
X83892500Y-88805000D03*
%TD*%
D33*
%TO.C,Y1*%
X239190000Y-167550000D03*
X239190000Y-165350000D03*
X240890000Y-165350000D03*
X240890000Y-167550000D03*
%TD*%
D34*
%TO.C,R1*%
X291480000Y-163850000D03*
X291480000Y-164870000D03*
%TD*%
D17*
%TO.C,D20*%
X464260000Y-84355000D03*
X464260000Y-87655000D03*
%TD*%
%TO.C,D23*%
X135662500Y-103505000D03*
X135662500Y-106805000D03*
%TD*%
%TO.C,D80*%
X264082500Y-162105000D03*
X264082500Y-165405000D03*
%TD*%
%TO.C,D71*%
X326162500Y-143055000D03*
X326162500Y-146355000D03*
%TD*%
D35*
%TO.C,C5*%
X221935000Y-168910000D03*
X220385000Y-168910000D03*
%TD*%
D17*
%TO.C,D81*%
X335520000Y-162105000D03*
X335520000Y-165405000D03*
%TD*%
%TO.C,D31*%
X292825000Y-103405000D03*
X292825000Y-106705000D03*
%TD*%
%TO.C,D27*%
X216625000Y-103405000D03*
X216625000Y-106705000D03*
%TD*%
%TO.C,D34*%
X349975000Y-103405000D03*
X349975000Y-106705000D03*
%TD*%
%TO.C,D77*%
X103072500Y-162165000D03*
X103072500Y-165465000D03*
%TD*%
%TO.C,D75*%
X464260000Y-143055000D03*
X464260000Y-146355000D03*
%TD*%
%TO.C,D3*%
X131620000Y-85855000D03*
X131620000Y-89155000D03*
%TD*%
D26*
%TO.C,C1*%
X290810002Y-174580000D03*
X291770002Y-174580000D03*
%TD*%
D17*
%TO.C,D47*%
X240437500Y-124005000D03*
X240437500Y-127305000D03*
%TD*%
D36*
%TO.C,BT1*%
X296750000Y-164460000D03*
X296750000Y-170760000D03*
X300550000Y-164460000D03*
X300550000Y-170760000D03*
%TD*%
D17*
%TO.C,D10*%
X265495000Y-85605000D03*
X265495000Y-88905000D03*
%TD*%
%TO.C,D73*%
X426160000Y-143055000D03*
X426160000Y-146355000D03*
%TD*%
%TO.C,D29*%
X254725000Y-103405000D03*
X254725000Y-106705000D03*
%TD*%
%TO.C,D26*%
X197575000Y-103405000D03*
X197575000Y-106705000D03*
%TD*%
%TO.C,D14*%
X340450000Y-85905000D03*
X340450000Y-89205000D03*
%TD*%
%TO.C,D8*%
X227045000Y-85530000D03*
X227045000Y-88830000D03*
%TD*%
D23*
%TO.C,R3*%
X245420000Y-174910000D03*
X246440000Y-174910000D03*
%TD*%
D17*
%TO.C,D72*%
X380931250Y-143055000D03*
X380931250Y-146355000D03*
%TD*%
%TO.C,D18*%
X426160000Y-84355000D03*
X426160000Y-87655000D03*
%TD*%
%TO.C,D9*%
X246570000Y-85605000D03*
X246570000Y-88905000D03*
%TD*%
D37*
%TO.C,C7*%
X238970000Y-170730000D03*
X238970000Y-171690000D03*
%TD*%
D17*
%TO.C,D60*%
X143565000Y-138957500D03*
X143565000Y-142257500D03*
%TD*%
%TO.C,D46*%
X221387500Y-124005000D03*
X221387500Y-127305000D03*
%TD*%
%TO.C,D63*%
X174345000Y-143005000D03*
X174345000Y-146305000D03*
%TD*%
%TO.C,D38*%
X445210000Y-103305000D03*
X445210000Y-106605000D03*
%TD*%
%TO.C,D52*%
X334887500Y-124005000D03*
X334887500Y-127305000D03*
%TD*%
%TO.C,D57*%
X464260000Y-124005000D03*
X464260000Y-127305000D03*
%TD*%
%TO.C,D76*%
X83867500Y-162030000D03*
X83867500Y-165330000D03*
%TD*%
%TO.C,D56*%
X445210000Y-124005000D03*
X445210000Y-127305000D03*
%TD*%
%TO.C,D50*%
X297587500Y-124005000D03*
X297587500Y-127305000D03*
%TD*%
%TO.C,D69*%
X288062500Y-143055000D03*
X288062500Y-146355000D03*
%TD*%
%TO.C,D55*%
X426160000Y-124105000D03*
X426160000Y-127405000D03*
%TD*%
D26*
%TO.C,C2*%
X290810000Y-172610000D03*
X291770000Y-172610000D03*
%TD*%
D17*
%TO.C,D48*%
X259487500Y-124005000D03*
X259487500Y-127305000D03*
%TD*%
%TO.C,D51*%
X316637500Y-124005000D03*
X316637500Y-127305000D03*
%TD*%
D38*
%TO.C,R4*%
X107155000Y-93055000D03*
X106135000Y-93055000D03*
%TD*%
D17*
%TO.C,D85*%
X464260000Y-162205000D03*
X464260000Y-165505000D03*
%TD*%
%TO.C,D16*%
X398615000Y-87007500D03*
X398615000Y-90307500D03*
%TD*%
%TO.C,D54*%
X385693750Y-124005000D03*
X385693750Y-127305000D03*
%TD*%
%TO.C,D67*%
X249962500Y-143055000D03*
X249962500Y-146355000D03*
%TD*%
%TO.C,D33*%
X330925000Y-103405000D03*
X330925000Y-106705000D03*
%TD*%
%TO.C,D42*%
X138043750Y-124005000D03*
X138043750Y-127305000D03*
%TD*%
%TO.C,D62*%
X154712500Y-143055000D03*
X154712500Y-146355000D03*
%TD*%
%TO.C,D30*%
X273775000Y-103305000D03*
X273775000Y-106605000D03*
%TD*%
%TO.C,D78*%
X171213750Y-162105000D03*
X171213750Y-165405000D03*
%TD*%
%TO.C,D61*%
X345212500Y-143155000D03*
X345212500Y-146455000D03*
%TD*%
D39*
%TO.C,D35*%
X374625000Y-100835000D03*
X374625000Y-97535000D03*
%TD*%
D17*
%TO.C,D24*%
X159475000Y-103405000D03*
X159475000Y-106705000D03*
%TD*%
D35*
%TO.C,C4*%
X221835000Y-165280000D03*
X220285000Y-165280000D03*
%TD*%
D17*
%TO.C,D11*%
X284845000Y-85680000D03*
X284845000Y-88980000D03*
%TD*%
%TO.C,D5*%
X169895000Y-85655000D03*
X169895000Y-88955000D03*
%TD*%
D39*
%TO.C,D87*%
X369025000Y-109905000D03*
X369025000Y-106605000D03*
%TD*%
D17*
%TO.C,D21*%
X83967500Y-104705000D03*
X83967500Y-108005000D03*
%TD*%
%TO.C,D68*%
X269012500Y-143055000D03*
X269012500Y-146355000D03*
%TD*%
M02*
