%TF.GenerationSoftware,KiCad,Pcbnew,8.0.8*%
%TF.CreationDate,2025-04-01T14:15:57+02:00*%
%TF.ProjectId,xt_pcb,78745f70-6362-42e6-9b69-6361645f7063,rev?*%
%TF.SameCoordinates,Original*%
%TF.FileFunction,Legend,Top*%
%TF.FilePolarity,Positive*%
%FSLAX46Y46*%
G04 Gerber Fmt 4.6, Leading zero omitted, Abs format (unit mm)*
G04 Created by KiCad (PCBNEW 8.0.8) date 2025-04-01 14:15:57*
%MOMM*%
%LPD*%
G01*
G04 APERTURE LIST*
%ADD10C,0.120000*%
G04 APERTURE END LIST*
D10*
%TO.C,SW79*%
X430310000Y-140505000D02*
X430310000Y-154705000D01*
X430310000Y-154705000D02*
X444510000Y-154705000D01*
X444510000Y-140505000D02*
X430310000Y-140505000D01*
X444510000Y-154705000D02*
X444510000Y-140505000D01*
%TO.C,SW43*%
X87410000Y-121455000D02*
X87410000Y-135655000D01*
X87410000Y-135655000D02*
X101610000Y-135655000D01*
X101610000Y-121455000D02*
X87410000Y-121455000D01*
X101610000Y-135655000D02*
X101610000Y-121455000D01*
%TO.C,SW46*%
X168387500Y-121455000D02*
X168387500Y-135655000D01*
X168387500Y-135655000D02*
X182587500Y-135655000D01*
X182587500Y-121455000D02*
X168387500Y-121455000D01*
X182587500Y-135655000D02*
X182587500Y-121455000D01*
%TO.C,SW36*%
X363650000Y-83355000D02*
X363650000Y-97555000D01*
X363650000Y-97555000D02*
X377850000Y-97555000D01*
X377850000Y-83355000D02*
X363650000Y-83355000D01*
X377850000Y-97555000D02*
X377850000Y-83355000D01*
%TO.C,SW72*%
X216012500Y-140505000D02*
X216012500Y-154705000D01*
X216012500Y-154705000D02*
X230212500Y-154705000D01*
X230212500Y-140505000D02*
X216012500Y-140505000D01*
X230212500Y-154705000D02*
X230212500Y-140505000D01*
%TO.C,SW25*%
X144575000Y-102405000D02*
X144575000Y-116605000D01*
X144575000Y-116605000D02*
X158775000Y-116605000D01*
X158775000Y-102405000D02*
X144575000Y-102405000D01*
X158775000Y-116605000D02*
X158775000Y-102405000D01*
%TO.C,SW38*%
X411260000Y-102405000D02*
X411260000Y-116605000D01*
X411260000Y-116605000D02*
X425460000Y-116605000D01*
X425460000Y-102405000D02*
X411260000Y-102405000D01*
X425460000Y-116605000D02*
X425460000Y-102405000D01*
%TO.C,SW62*%
X354125000Y-102405000D02*
X354125000Y-116605000D01*
X354125000Y-116605000D02*
X368325000Y-116605000D01*
X368325000Y-102405000D02*
X354125000Y-102405000D01*
X368325000Y-116605000D02*
X368325000Y-102405000D01*
%TO.C,SW28*%
X201725000Y-102405000D02*
X201725000Y-116605000D01*
X201725000Y-116605000D02*
X215925000Y-116605000D01*
X215925000Y-102405000D02*
X201725000Y-102405000D01*
X215925000Y-116605000D02*
X215925000Y-102405000D01*
%TO.C,SW9*%
X192200000Y-83355000D02*
X192200000Y-97555000D01*
X192200000Y-97555000D02*
X206400000Y-97555000D01*
X206400000Y-83355000D02*
X192200000Y-83355000D01*
X206400000Y-97555000D02*
X206400000Y-83355000D01*
%TO.C,SW23*%
X87410000Y-102405000D02*
X87410000Y-116605000D01*
X87410000Y-116605000D02*
X101610000Y-116605000D01*
X101610000Y-102405000D02*
X87410000Y-102405000D01*
X101610000Y-116605000D02*
X101610000Y-102405000D01*
%TO.C,SW60*%
X330312500Y-140505000D02*
X330312500Y-154705000D01*
X330312500Y-154705000D02*
X344512500Y-154705000D01*
X344512500Y-140505000D02*
X330312500Y-140505000D01*
X344512500Y-154705000D02*
X344512500Y-140505000D01*
%TO.C,SW5*%
X116000000Y-83355000D02*
X116000000Y-97555000D01*
X116000000Y-97555000D02*
X130200000Y-97555000D01*
X130200000Y-83355000D02*
X116000000Y-83355000D01*
X130200000Y-97555000D02*
X130200000Y-83355000D01*
%TO.C,SW3*%
X68360000Y-83355000D02*
X68360000Y-97555000D01*
X68360000Y-97555000D02*
X82560000Y-97555000D01*
X82560000Y-83355000D02*
X68360000Y-83355000D01*
X82560000Y-97555000D02*
X82560000Y-83355000D01*
%TO.C,SW56*%
X370793750Y-121455000D02*
X370793750Y-135655000D01*
X370793750Y-135655000D02*
X384993750Y-135655000D01*
X384993750Y-121455000D02*
X370793750Y-121455000D01*
X384993750Y-135655000D02*
X384993750Y-121455000D01*
%TO.C,SW20*%
X430310000Y-83355000D02*
X430310000Y-97555000D01*
X430310000Y-97555000D02*
X444510000Y-97555000D01*
X444510000Y-83355000D02*
X430310000Y-83355000D01*
X444510000Y-97555000D02*
X444510000Y-83355000D01*
%TO.C,SW97*%
X356506250Y-140505000D02*
X356506250Y-154705000D01*
X356506250Y-154705000D02*
X370706250Y-154705000D01*
X370706250Y-140505000D02*
X356506250Y-140505000D01*
X370706250Y-154705000D02*
X370706250Y-140505000D01*
%TO.C,SW63*%
X118381250Y-140505000D02*
X118381250Y-154705000D01*
X118381250Y-154705000D02*
X132581250Y-154705000D01*
X132581250Y-140505000D02*
X118381250Y-140505000D01*
X132581250Y-154705000D02*
X132581250Y-140505000D01*
%TO.C,SW42*%
X68360000Y-121455000D02*
X68360000Y-135655000D01*
X68360000Y-135655000D02*
X82560000Y-135655000D01*
X82560000Y-121455000D02*
X68360000Y-121455000D01*
X82560000Y-135655000D02*
X82560000Y-121455000D01*
%TO.C,SW83*%
X156313750Y-159555000D02*
X156313750Y-173755000D01*
X156313750Y-173755000D02*
X170513750Y-173755000D01*
X170513750Y-159555000D02*
X156313750Y-159555000D01*
X170513750Y-173755000D02*
X170513750Y-159555000D01*
%TO.C,SW47*%
X187437500Y-121455000D02*
X187437500Y-135655000D01*
X187437500Y-135655000D02*
X201637500Y-135655000D01*
X201637500Y-121455000D02*
X187437500Y-121455000D01*
X201637500Y-135655000D02*
X201637500Y-121455000D01*
%TO.C,SW85*%
X249182500Y-159555000D02*
X249182500Y-173755000D01*
X249182500Y-173755000D02*
X263382500Y-173755000D01*
X263382500Y-159555000D02*
X249182500Y-159555000D01*
X263382500Y-173755000D02*
X263382500Y-159555000D01*
%TO.C,SW90*%
X449360000Y-159555000D02*
X449360000Y-173755000D01*
X449360000Y-173755000D02*
X463560000Y-173755000D01*
X463560000Y-159555000D02*
X449360000Y-159555000D01*
X463560000Y-173755000D02*
X463560000Y-159555000D01*
%TO.C,SW82*%
X87410000Y-159555000D02*
X87410000Y-173755000D01*
X87410000Y-173755000D02*
X101610000Y-173755000D01*
X101610000Y-159555000D02*
X87410000Y-159555000D01*
X101610000Y-173755000D02*
X101610000Y-159555000D01*
%TO.C,SW13*%
X268400000Y-83355000D02*
X268400000Y-97555000D01*
X268400000Y-97555000D02*
X282600000Y-97555000D01*
X282600000Y-83355000D02*
X268400000Y-83355000D01*
X282600000Y-97555000D02*
X282600000Y-83355000D01*
%TO.C,SW24*%
X120762500Y-102405000D02*
X120762500Y-116605000D01*
X120762500Y-116605000D02*
X134962500Y-116605000D01*
X134962500Y-102405000D02*
X120762500Y-102405000D01*
X134962500Y-116605000D02*
X134962500Y-102405000D01*
%TO.C,SW81*%
X68360000Y-159555000D02*
X68360000Y-173755000D01*
X68360000Y-173755000D02*
X82560000Y-173755000D01*
X82560000Y-159555000D02*
X68360000Y-159555000D01*
X82560000Y-173755000D02*
X82560000Y-159555000D01*
%TO.C,SW22*%
X68360000Y-102405000D02*
X68360000Y-116605000D01*
X68360000Y-116605000D02*
X82560000Y-116605000D01*
X82560000Y-102405000D02*
X68360000Y-102405000D01*
X82560000Y-116605000D02*
X82560000Y-102405000D01*
%TO.C,SW14*%
X287450000Y-83355000D02*
X287450000Y-97555000D01*
X287450000Y-97555000D02*
X301650000Y-97555000D01*
X301650000Y-83355000D02*
X287450000Y-83355000D01*
X301650000Y-97555000D02*
X301650000Y-83355000D01*
%TO.C,SW49*%
X225537500Y-121455000D02*
X225537500Y-135655000D01*
X225537500Y-135655000D02*
X239737500Y-135655000D01*
X239737500Y-121455000D02*
X225537500Y-121455000D01*
X239737500Y-135655000D02*
X239737500Y-121455000D01*
%TO.C,SW54*%
X320787500Y-121455000D02*
X320787500Y-135655000D01*
X320787500Y-135655000D02*
X334987500Y-135655000D01*
X334987500Y-121455000D02*
X320787500Y-121455000D01*
X334987500Y-135655000D02*
X334987500Y-121455000D01*
%TO.C,SW10*%
X211250000Y-83355000D02*
X211250000Y-97555000D01*
X211250000Y-97555000D02*
X225450000Y-97555000D01*
X225450000Y-83355000D02*
X211250000Y-83355000D01*
X225450000Y-97555000D02*
X225450000Y-83355000D01*
%TO.C,SW15*%
X306500000Y-83355000D02*
X306500000Y-97555000D01*
X306500000Y-97555000D02*
X320700000Y-97555000D01*
X320700000Y-83355000D02*
X306500000Y-83355000D01*
X320700000Y-97555000D02*
X320700000Y-83355000D01*
%TO.C,SW29*%
X220775000Y-102405000D02*
X220775000Y-116605000D01*
X220775000Y-116605000D02*
X234975000Y-116605000D01*
X234975000Y-102405000D02*
X220775000Y-102405000D01*
X234975000Y-116605000D02*
X234975000Y-102405000D01*
%TO.C,SW67*%
X87410000Y-140505000D02*
X87410000Y-154705000D01*
X87410000Y-154705000D02*
X101610000Y-154705000D01*
X101610000Y-140505000D02*
X87410000Y-140505000D01*
X101610000Y-154705000D02*
X101610000Y-140505000D01*
%TO.C,SW50*%
X244587500Y-121455000D02*
X244587500Y-135655000D01*
X244587500Y-135655000D02*
X258787500Y-135655000D01*
X258787500Y-121455000D02*
X244587500Y-121455000D01*
X258787500Y-135655000D02*
X258787500Y-121455000D01*
%TO.C,SW58*%
X430310000Y-121455000D02*
X430310000Y-135655000D01*
X430310000Y-135655000D02*
X444510000Y-135655000D01*
X444510000Y-121455000D02*
X430310000Y-121455000D01*
X444510000Y-135655000D02*
X444510000Y-121455000D01*
%TO.C,SW55*%
X339837500Y-121455000D02*
X339837500Y-135655000D01*
X339837500Y-135655000D02*
X354037500Y-135655000D01*
X354037500Y-121455000D02*
X339837500Y-121455000D01*
X354037500Y-135655000D02*
X354037500Y-121455000D01*
%TO.C,SW16*%
X325550000Y-83355000D02*
X325550000Y-97555000D01*
X325550000Y-97555000D02*
X339750000Y-97555000D01*
X339750000Y-83355000D02*
X325550000Y-83355000D01*
X339750000Y-97555000D02*
X339750000Y-83355000D01*
%TO.C,SW96*%
X366031250Y-140505000D02*
X366031250Y-154705000D01*
X366031250Y-154705000D02*
X380231250Y-154705000D01*
X380231250Y-140505000D02*
X366031250Y-140505000D01*
X380231250Y-154705000D02*
X380231250Y-140505000D01*
%TO.C,SW73*%
X235062500Y-140505000D02*
X235062500Y-154705000D01*
X235062500Y-154705000D02*
X249262500Y-154705000D01*
X249262500Y-140505000D02*
X235062500Y-140505000D01*
X249262500Y-154705000D02*
X249262500Y-140505000D01*
%TO.C,SW37*%
X377937500Y-102405000D02*
X377937500Y-116605000D01*
X377937500Y-116605000D02*
X392137500Y-116605000D01*
X392137500Y-102405000D02*
X377937500Y-102405000D01*
X392137500Y-116605000D02*
X392137500Y-102405000D01*
%TO.C,SW71*%
X196962500Y-140505000D02*
X196962500Y-154705000D01*
X196962500Y-154705000D02*
X211162500Y-154705000D01*
X211162500Y-140505000D02*
X196962500Y-140505000D01*
X211162500Y-154705000D02*
X211162500Y-140505000D01*
%TO.C,SW52*%
X282687500Y-121455000D02*
X282687500Y-135655000D01*
X282687500Y-135655000D02*
X296887500Y-135655000D01*
X296887500Y-121455000D02*
X282687500Y-121455000D01*
X296887500Y-135655000D02*
X296887500Y-121455000D01*
%TO.C,SW34*%
X316025000Y-102405000D02*
X316025000Y-116605000D01*
X316025000Y-116605000D02*
X330225000Y-116605000D01*
X330225000Y-102405000D02*
X316025000Y-102405000D01*
X330225000Y-116605000D02*
X330225000Y-102405000D01*
%TO.C,SW59*%
X449360000Y-121455000D02*
X449360000Y-135655000D01*
X449360000Y-135655000D02*
X463560000Y-135655000D01*
X463560000Y-121455000D02*
X449360000Y-121455000D01*
X463560000Y-135655000D02*
X463560000Y-121455000D01*
%TO.C,SW75*%
X273162500Y-140505000D02*
X273162500Y-154705000D01*
X273162500Y-154705000D02*
X287362500Y-154705000D01*
X287362500Y-140505000D02*
X273162500Y-140505000D01*
X287362500Y-154705000D02*
X287362500Y-140505000D01*
%TO.C,SW44*%
X118430000Y-121470000D02*
X118430000Y-135670000D01*
X118430000Y-135670000D02*
X132630000Y-135670000D01*
X132630000Y-121470000D02*
X118430000Y-121470000D01*
X132630000Y-135670000D02*
X132630000Y-121470000D01*
%TO.C,SW41*%
X123143750Y-121455000D02*
X123143750Y-135655000D01*
X123143750Y-135655000D02*
X137343750Y-135655000D01*
X137343750Y-121455000D02*
X123143750Y-121455000D01*
X137343750Y-135655000D02*
X137343750Y-121455000D01*
%TO.C,SW6*%
X135050000Y-83355000D02*
X135050000Y-97555000D01*
X135050000Y-97555000D02*
X149250000Y-97555000D01*
X149250000Y-83355000D02*
X135050000Y-83355000D01*
X149250000Y-97555000D02*
X149250000Y-83355000D01*
%TO.C,SW21*%
X449360000Y-83355000D02*
X449360000Y-97555000D01*
X449360000Y-97555000D02*
X463560000Y-97555000D01*
X463560000Y-83355000D02*
X449360000Y-83355000D01*
X463560000Y-97555000D02*
X463560000Y-83355000D01*
%TO.C,SW77*%
X311262500Y-140505000D02*
X311262500Y-154705000D01*
X311262500Y-154705000D02*
X325462500Y-154705000D01*
X325462500Y-140505000D02*
X311262500Y-140505000D01*
X325462500Y-154705000D02*
X325462500Y-140505000D01*
%TO.C,SW4*%
X87410000Y-83355000D02*
X87410000Y-97555000D01*
X87410000Y-97555000D02*
X101610000Y-97555000D01*
X101610000Y-83355000D02*
X87410000Y-83355000D01*
X101610000Y-97555000D02*
X101610000Y-83355000D01*
%TO.C,SW2*%
X382700000Y-83355000D02*
X382700000Y-97555000D01*
X382700000Y-97555000D02*
X396900000Y-97555000D01*
X396900000Y-83355000D02*
X382700000Y-83355000D01*
X396900000Y-97555000D02*
X396900000Y-83355000D01*
%TO.C,SW1*%
X373175000Y-83355000D02*
X373175000Y-97555000D01*
X373175000Y-97555000D02*
X387375000Y-97555000D01*
X387375000Y-83355000D02*
X373175000Y-83355000D01*
X387375000Y-97555000D02*
X387375000Y-83355000D01*
%TO.C,SW12*%
X249350000Y-83355000D02*
X249350000Y-97555000D01*
X249350000Y-97555000D02*
X263550000Y-97555000D01*
X263550000Y-83355000D02*
X249350000Y-83355000D01*
X263550000Y-97555000D02*
X263550000Y-83355000D01*
%TO.C,SW66*%
X68360000Y-140505000D02*
X68360000Y-154705000D01*
X68360000Y-154705000D02*
X82560000Y-154705000D01*
X82560000Y-140505000D02*
X68360000Y-140505000D01*
X82560000Y-154705000D02*
X82560000Y-140505000D01*
%TO.C,SW68*%
X139812500Y-140505000D02*
X139812500Y-154705000D01*
X139812500Y-154705000D02*
X154012500Y-154705000D01*
X154012500Y-140505000D02*
X139812500Y-140505000D01*
X154012500Y-154705000D02*
X154012500Y-140505000D01*
%TO.C,SW40*%
X449360000Y-102405000D02*
X449360000Y-116605000D01*
X449360000Y-116605000D02*
X463560000Y-116605000D01*
X463560000Y-102405000D02*
X449360000Y-102405000D01*
X463560000Y-116605000D02*
X463560000Y-102405000D01*
%TO.C,SW45*%
X149337500Y-121455000D02*
X149337500Y-135655000D01*
X149337500Y-135655000D02*
X163537500Y-135655000D01*
X163537500Y-121455000D02*
X149337500Y-121455000D01*
X163537500Y-135655000D02*
X163537500Y-121455000D01*
%TO.C,SW7*%
X154100000Y-83355000D02*
X154100000Y-97555000D01*
X154100000Y-97555000D02*
X168300000Y-97555000D01*
X168300000Y-83355000D02*
X154100000Y-83355000D01*
X168300000Y-97555000D02*
X168300000Y-83355000D01*
%TO.C,SW48*%
X206487500Y-121455000D02*
X206487500Y-135655000D01*
X206487500Y-135655000D02*
X220687500Y-135655000D01*
X220687500Y-121455000D02*
X206487500Y-121455000D01*
X220687500Y-135655000D02*
X220687500Y-121455000D01*
%TO.C,SW31*%
X258875000Y-102405000D02*
X258875000Y-116605000D01*
X258875000Y-116605000D02*
X273075000Y-116605000D01*
X273075000Y-102405000D02*
X258875000Y-102405000D01*
X273075000Y-116605000D02*
X273075000Y-102405000D01*
%TO.C,SW26*%
X163625000Y-102405000D02*
X163625000Y-116605000D01*
X163625000Y-116605000D02*
X177825000Y-116605000D01*
X177825000Y-102405000D02*
X163625000Y-102405000D01*
X177825000Y-116605000D02*
X177825000Y-102405000D01*
%TO.C,SW35*%
X335075000Y-102405000D02*
X335075000Y-116605000D01*
X335075000Y-116605000D02*
X349275000Y-116605000D01*
X349275000Y-102405000D02*
X335075000Y-102405000D01*
X349275000Y-116605000D02*
X349275000Y-102405000D01*
%TO.C,SW84*%
X177745000Y-159555000D02*
X177745000Y-173755000D01*
X177745000Y-173755000D02*
X191945000Y-173755000D01*
X191945000Y-159555000D02*
X177745000Y-159555000D01*
X191945000Y-173755000D02*
X191945000Y-159555000D01*
%TO.C,SW78*%
X411260000Y-140505000D02*
X411260000Y-154705000D01*
X411260000Y-154705000D02*
X425460000Y-154705000D01*
X425460000Y-140505000D02*
X411260000Y-140505000D01*
X425460000Y-154705000D02*
X425460000Y-140505000D01*
%TO.C,SW32*%
X277925000Y-102405000D02*
X277925000Y-116605000D01*
X277925000Y-116605000D02*
X292125000Y-116605000D01*
X292125000Y-102405000D02*
X277925000Y-102405000D01*
X292125000Y-116605000D02*
X292125000Y-102405000D01*
%TO.C,SW89*%
X430310000Y-159555000D02*
X430310000Y-173755000D01*
X430310000Y-173755000D02*
X444510000Y-173755000D01*
X444510000Y-159555000D02*
X430310000Y-159555000D01*
X444510000Y-173755000D02*
X444510000Y-159555000D01*
%TO.C,SW69*%
X158862500Y-140505000D02*
X158862500Y-154705000D01*
X158862500Y-154705000D02*
X173062500Y-154705000D01*
X173062500Y-140505000D02*
X158862500Y-140505000D01*
X173062500Y-154705000D02*
X173062500Y-140505000D01*
%TO.C,SW17*%
X344600000Y-83355000D02*
X344600000Y-97555000D01*
X344600000Y-97555000D02*
X358800000Y-97555000D01*
X358800000Y-83355000D02*
X344600000Y-83355000D01*
X358800000Y-97555000D02*
X358800000Y-83355000D01*
%TO.C,SW39*%
X430310000Y-102405000D02*
X430310000Y-116605000D01*
X430310000Y-116605000D02*
X444510000Y-116605000D01*
X444510000Y-102405000D02*
X430310000Y-102405000D01*
X444510000Y-116605000D02*
X444510000Y-102405000D01*
%TO.C,SW74*%
X254112500Y-140505000D02*
X254112500Y-154705000D01*
X254112500Y-154705000D02*
X268312500Y-154705000D01*
X268312500Y-140505000D02*
X254112500Y-140505000D01*
X268312500Y-154705000D02*
X268312500Y-140505000D01*
%TO.C,SW30*%
X239825000Y-102405000D02*
X239825000Y-116605000D01*
X239825000Y-116605000D02*
X254025000Y-116605000D01*
X254025000Y-102405000D02*
X239825000Y-102405000D01*
X254025000Y-116605000D02*
X254025000Y-102405000D01*
%TO.C,SW64*%
X382700000Y-140505000D02*
X382700000Y-154705000D01*
X382700000Y-154705000D02*
X396900000Y-154705000D01*
X396900000Y-140505000D02*
X382700000Y-140505000D01*
X396900000Y-154705000D02*
X396900000Y-140505000D01*
%TO.C,SW19*%
X411260000Y-83355000D02*
X411260000Y-97555000D01*
X411260000Y-97555000D02*
X425460000Y-97555000D01*
X425460000Y-83355000D02*
X411260000Y-83355000D01*
X425460000Y-97555000D02*
X425460000Y-83355000D01*
%TO.C,SW57*%
X411260000Y-121455000D02*
X411260000Y-135655000D01*
X411260000Y-135655000D02*
X425460000Y-135655000D01*
X425460000Y-121455000D02*
X411260000Y-121455000D01*
X425460000Y-135655000D02*
X425460000Y-121455000D01*
%TO.C,SW8*%
X173150000Y-83355000D02*
X173150000Y-97555000D01*
X173150000Y-97555000D02*
X187350000Y-97555000D01*
X187350000Y-83355000D02*
X173150000Y-83355000D01*
X187350000Y-97555000D02*
X187350000Y-83355000D01*
%TO.C,SW51*%
X263637500Y-121455000D02*
X263637500Y-135655000D01*
X263637500Y-135655000D02*
X277837500Y-135655000D01*
X277837500Y-121455000D02*
X263637500Y-121455000D01*
X277837500Y-135655000D02*
X277837500Y-121455000D01*
%TO.C,SW33*%
X296975000Y-102405000D02*
X296975000Y-116605000D01*
X296975000Y-116605000D02*
X311175000Y-116605000D01*
X311175000Y-102405000D02*
X296975000Y-102405000D01*
X311175000Y-116605000D02*
X311175000Y-102405000D01*
%TO.C,SW76*%
X292212500Y-140505000D02*
X292212500Y-154705000D01*
X292212500Y-154705000D02*
X306412500Y-154705000D01*
X306412500Y-140505000D02*
X292212500Y-140505000D01*
X306412500Y-154705000D02*
X306412500Y-140505000D01*
%TO.C,SW11*%
X230300000Y-83355000D02*
X230300000Y-97555000D01*
X230300000Y-97555000D02*
X244500000Y-97555000D01*
X244500000Y-83355000D02*
X230300000Y-83355000D01*
X244500000Y-97555000D02*
X244500000Y-83355000D01*
%TO.C,SW80*%
X449360000Y-140505000D02*
X449360000Y-154705000D01*
X449360000Y-154705000D02*
X463560000Y-154705000D01*
X463560000Y-140505000D02*
X449360000Y-140505000D01*
X463560000Y-154705000D02*
X463560000Y-140505000D01*
%TO.C,SW27*%
X182675000Y-102405000D02*
X182675000Y-116605000D01*
X182675000Y-116605000D02*
X196875000Y-116605000D01*
X196875000Y-102405000D02*
X182675000Y-102405000D01*
X196875000Y-116605000D02*
X196875000Y-102405000D01*
%TO.C,SW88*%
X411260000Y-159555000D02*
X411260000Y-173755000D01*
X411260000Y-173755000D02*
X425460000Y-173755000D01*
X425460000Y-159555000D02*
X411260000Y-159555000D01*
X425460000Y-173755000D02*
X425460000Y-159555000D01*
%TO.C,SW87*%
X342051250Y-159555000D02*
X342051250Y-173755000D01*
X342051250Y-173755000D02*
X356251250Y-173755000D01*
X356251250Y-159555000D02*
X342051250Y-159555000D01*
X356251250Y-173755000D02*
X356251250Y-159555000D01*
%TO.C,SW61*%
X127906250Y-140505000D02*
X127906250Y-154705000D01*
X127906250Y-154705000D02*
X142106250Y-154705000D01*
X142106250Y-140505000D02*
X127906250Y-140505000D01*
X142106250Y-154705000D02*
X142106250Y-140505000D01*
%TO.C,SW86*%
X320620000Y-159555000D02*
X320620000Y-173755000D01*
X320620000Y-173755000D02*
X334820000Y-173755000D01*
X334820000Y-159555000D02*
X320620000Y-159555000D01*
X334820000Y-173755000D02*
X334820000Y-159555000D01*
%TO.C,SW53*%
X301737500Y-121455000D02*
X301737500Y-135655000D01*
X301737500Y-135655000D02*
X315937500Y-135655000D01*
X315937500Y-121455000D02*
X301737500Y-121455000D01*
X315937500Y-135655000D02*
X315937500Y-121455000D01*
%TO.C,SW70*%
X177912500Y-140505000D02*
X177912500Y-154705000D01*
X177912500Y-154705000D02*
X192112500Y-154705000D01*
X192112500Y-140505000D02*
X177912500Y-140505000D01*
X192112500Y-154705000D02*
X192112500Y-140505000D01*
%TD*%
M02*
