M48
; DRILL file {KiCad 8.0.8} date 2025-04-01T14:16:01+0200
; FORMAT={-:-/ absolute / inch / decimal}
; #@! TF.CreationDate,2025-04-01T14:16:01+02:00
; #@! TF.GenerationSoftware,Kicad,Pcbnew,8.0.8
; #@! TF.FileFunction,NonPlated,1,2,NPTH
FMAT,2
INCH
; #@! TA.AperFunction,NonPlated,NPTH,ComponentDrill
T1C0.0256
; #@! TA.AperFunction,NonPlated,NPTH,ComponentDrill
T2C0.0689
; #@! TA.AperFunction,NonPlated,NPTH,ComponentDrill
T3C0.1200
; #@! TA.AperFunction,NonPlated,NPTH,ComponentDrill
T4C0.1570
; #@! TA.AperFunction,NonPlated,NPTH,ComponentDrill
T5C0.1575
%
G90
G05
T1
X4.1935Y-3.4518
X4.4211Y-3.4518
T2
X2.7709Y-3.5612
X2.7709Y-4.3112
X2.7709Y-5.0612
X2.7709Y-5.8112
X2.7709Y-6.5612
X3.1709Y-3.5612
X3.1709Y-4.3112
X3.1709Y-5.0612
X3.1709Y-5.8112
X3.1709Y-6.5612
X3.5209Y-3.5612
X3.5209Y-4.3112
X3.5209Y-5.0612
X3.5209Y-5.8112
X3.5209Y-6.5612
X3.9209Y-3.5612
X3.9209Y-4.3112
X3.9209Y-5.0612
X3.9209Y-5.8112
X3.9209Y-6.5612
X4.6465Y-3.5612
X4.7402Y-5.8112
X4.7421Y-5.0618
X4.834Y-4.3112
X4.9277Y-5.0612
X5.0465Y-3.5612
X5.1152Y-5.8112
X5.1402Y-5.8112
X5.1421Y-5.0618
X5.234Y-4.3112
X5.3277Y-5.0612
X5.3965Y-3.5612
X5.5152Y-5.8112
X5.584Y-5.8112
X5.7715Y-4.3112
X5.7965Y-3.5612
X5.959Y-5.0612
X5.984Y-5.8112
X6.1465Y-3.5612
X6.1715Y-4.3112
X6.2336Y-6.5612
X6.334Y-5.8112
X6.359Y-5.0612
X6.5215Y-4.3112
X6.5465Y-3.5612
X6.6336Y-6.5612
X6.709Y-5.0612
X6.734Y-5.8112
X6.8965Y-3.5612
X6.9215Y-4.3112
X7.0774Y-6.5612
X7.084Y-5.8112
X7.109Y-5.0612
X7.2715Y-4.3112
X7.2965Y-3.5612
X7.459Y-5.0612
X7.4774Y-6.5612
X7.484Y-5.8112
X7.6465Y-3.5612
X7.6715Y-4.3112
X7.834Y-5.8112
X7.859Y-5.0612
X8.0215Y-4.3112
X8.0465Y-3.5612
X8.209Y-5.0612
X8.234Y-5.8112
X8.3965Y-3.5612
X8.4215Y-4.3112
X8.584Y-5.8112
X8.609Y-5.0612
X8.7715Y-4.3112
X8.7965Y-3.5612
X8.959Y-5.0612
X8.984Y-5.8112
X9.1465Y-3.5612
X9.1715Y-4.3112
X9.334Y-5.8112
X9.359Y-5.0612
X9.5215Y-4.3112
X9.5465Y-3.5612
X9.709Y-5.0612
X9.734Y-5.8112
X9.8899Y-6.5612
X9.8965Y-3.5612
X9.9215Y-4.3112
X10.084Y-5.8112
X10.109Y-5.0612
X10.2715Y-4.3112
X10.2899Y-6.5612
X10.2965Y-3.5612
X10.459Y-5.0612
X10.484Y-5.8112
X10.6465Y-3.5612
X10.6715Y-4.3112
X10.834Y-5.8112
X10.859Y-5.0612
X11.0215Y-4.3112
X11.0465Y-3.5612
X11.209Y-5.0612
X11.234Y-5.8112
X11.3965Y-3.5612
X11.4215Y-4.3112
X11.584Y-5.8112
X11.609Y-5.0612
X11.7715Y-4.3112
X11.7965Y-3.5612
X11.959Y-5.0612
X11.984Y-5.8112
X12.1465Y-3.5612
X12.1715Y-4.3112
X12.334Y-5.8112
X12.359Y-5.0612
X12.5215Y-4.3112
X12.5465Y-3.5612
X12.7024Y-6.5612
X12.709Y-5.0612
X12.734Y-5.8112
X12.8965Y-3.5612
X12.9215Y-4.3112
X13.084Y-5.8112
X13.1024Y-6.5612
X13.109Y-5.0612
X13.2715Y-4.3112
X13.2965Y-3.5612
X13.459Y-5.0612
X13.484Y-5.8112
X13.5461Y-6.5612
X13.6465Y-3.5612
X13.6715Y-4.3112
X13.859Y-5.0612
X13.9461Y-6.5612
X14.0215Y-4.3112
X14.0465Y-3.5612
X14.1152Y-5.8112
X14.3965Y-3.5612
X14.4215Y-4.3112
X14.4902Y-5.8112
X14.5152Y-5.8112
X14.6777Y-5.0612
X14.7715Y-3.5612
X14.7965Y-3.5612
X14.8902Y-5.8112
X14.959Y-4.3112
X15.0777Y-5.0612
X15.1465Y-3.5612
X15.1465Y-5.8112
X15.1715Y-3.5612
X15.359Y-4.3112
X15.5465Y-3.5612
X15.5465Y-5.8112
X16.2709Y-3.5612
X16.2709Y-4.3112
X16.2709Y-5.0612
X16.2709Y-5.8112
X16.2709Y-6.5612
X16.6709Y-3.5612
X16.6709Y-4.3112
X16.6709Y-5.0612
X16.6709Y-5.8112
X16.6709Y-6.5612
X17.0209Y-3.5612
X17.0209Y-4.3112
X17.0209Y-5.0612
X17.0209Y-5.8112
X17.0209Y-6.5612
X17.4209Y-3.5612
X17.4209Y-4.3112
X17.4209Y-5.0612
X17.4209Y-5.8112
X17.4209Y-6.5612
X17.7709Y-3.5612
X17.7709Y-4.3112
X17.7709Y-5.0612
X17.7709Y-5.8112
X17.7709Y-6.5612
X18.1709Y-3.5612
X18.1709Y-4.3112
X18.1709Y-5.0612
X18.1709Y-5.8112
X18.1709Y-6.5612
T3
X4.8452Y-5.5362
X5.7852Y-5.5362
X8.2217Y-6.8362
X12.1587Y-6.8362
X14.2202Y-5.5362
X14.4077Y-5.3362
X14.5015Y-3.2862
X15.1602Y-5.5362
X15.3477Y-5.3362
X15.4415Y-3.2862
T4
X4.8452Y-6.135
X5.7852Y-6.135
X8.2217Y-6.2374
X12.1587Y-6.2374
X14.2202Y-6.135
X14.4077Y-4.7374
X14.5015Y-3.885
X15.1602Y-6.135
X15.3477Y-4.7374
X15.4415Y-3.885
T5
X2.9709Y-3.5612
X2.9709Y-4.3112
X2.9709Y-5.0612
X2.9709Y-5.8112
X2.9709Y-6.5612
X3.7209Y-3.5612
X3.7209Y-4.3112
X3.7209Y-5.0612
X3.7209Y-5.8112
X3.7209Y-6.5612
X4.8465Y-3.5612
X4.9402Y-5.8112
X4.9421Y-5.0618
X5.034Y-4.3112
X5.1277Y-5.0612
X5.3152Y-5.8112
X5.5965Y-3.5612
X5.784Y-5.8112
X5.9715Y-4.3112
X6.159Y-5.0612
X6.3465Y-3.5612
X6.4336Y-6.5612
X6.534Y-5.8112
X6.7215Y-4.3112
X6.909Y-5.0612
X7.0965Y-3.5612
X7.2774Y-6.5612
X7.284Y-5.8112
X7.4715Y-4.3112
X7.659Y-5.0612
X7.8465Y-3.5612
X8.034Y-5.8112
X8.2215Y-4.3112
X8.409Y-5.0612
X8.5965Y-3.5612
X8.784Y-5.8112
X8.9715Y-4.3112
X9.159Y-5.0612
X9.3465Y-3.5612
X9.534Y-5.8112
X9.7215Y-4.3112
X9.909Y-5.0612
X10.0899Y-6.5612
X10.0965Y-3.5612
X10.284Y-5.8112
X10.4715Y-4.3112
X10.659Y-5.0612
X10.8465Y-3.5612
X11.034Y-5.8112
X11.2215Y-4.3112
X11.409Y-5.0612
X11.5965Y-3.5612
X11.784Y-5.8112
X11.9715Y-4.3112
X12.159Y-5.0612
X12.3465Y-3.5612
X12.534Y-5.8112
X12.7215Y-4.3112
X12.9024Y-6.5612
X12.909Y-5.0612
X13.0965Y-3.5612
X13.284Y-5.8112
X13.4715Y-4.3112
X13.659Y-5.0612
X13.7461Y-6.5612
X13.8465Y-3.5612
X14.2215Y-4.3112
X14.3152Y-5.8112
X14.5965Y-3.5612
X14.6902Y-5.8112
X14.8777Y-5.0612
X14.9715Y-3.5612
X15.159Y-4.3112
X15.3465Y-3.5612
X15.3465Y-5.8112
X16.4709Y-3.5612
X16.4709Y-4.3112
X16.4709Y-5.0612
X16.4709Y-5.8112
X16.4709Y-6.5612
X17.2209Y-3.5612
X17.2209Y-4.3112
X17.2209Y-5.0612
X17.2209Y-5.8112
X17.2209Y-6.5612
X17.9709Y-3.5612
X17.9709Y-4.3112
X17.9709Y-5.0612
X17.9709Y-5.8112
X17.9709Y-6.5612
M30
